<svg width="779" height="804" viewBox="0 0 779 804" fill="none" xmlns="http://www.w3.org/2000/svg">
<g clip-path="url(#clip0_179_602)">
<path d="M581.692 752.94C457.202 820.04 321.852 820.03 197.402 752.94C86.9519 693.39 10.1019 576.7 0.821898 450.68C-2.2681 408.69 3.9419 376.33 9.6919 336.13C2.6019 418.61 15.8419 501.31 56.9919 573.35C98.4019 645.84 169.462 697.42 245.442 729.28C350.162 773.19 441.842 772.99 545.482 726.32C707.952 653.17 787.292 502.62 766.452 325.77C809.902 491.74 731.972 671.92 581.702 752.92L581.692 752.94Z" fill="#DB8337"/>
<path d="M766.441 325.79C787.281 502.63 707.951 653.19 545.471 726.34C441.831 773 350.161 773.21 245.431 729.3C169.451 697.44 98.3912 645.86 56.9812 573.37C15.8412 501.31 2.60116 418.61 9.69116 336.13C13.6512 308.45 17.9112 306.19 12.6512 264.45C20.0612 247.92 41.1312 240.8 49.6012 226.02C57.6712 211.95 57.8312 191.56 62.9012 177.25C88.3312 105.45 166.551 84.95 221.791 44.97L252.831 31.67C286.891 29.3 321.691 2.88999 340.031 0.629993C377.671 -4.00001 415.561 18.84 437.581 16.89C467.011 2.67999 506.151 11.81 535.131 24.28C583.281 45 583.631 75.38 594.251 77.49C664.941 64.61 654.111 95.87 667.411 121.09C687.691 159.53 774.831 218.13 766.441 325.8V325.79Z" fill="#F3B25D"/>
<path d="M45.1602 466.2C49.8202 462.94 57.5402 489.69 61.4202 497.98C80.4902 538.74 133.26 630.51 181.88 631.74L246.91 680.51C399.66 749.87 583.83 711.72 668.89 560.05C694.91 513.66 721.17 429.5 725.06 376.77C727.63 341.93 721.79 307.21 722.1 272.57C760.86 387.21 742.88 499.71 665.93 594.04C570.62 710.88 414.77 758.8 270.56 710.07C214 690.95 164.35 649.93 122.02 608.83C106.3 583.04 85.7902 560.45 71.7702 533.45C63.5102 517.55 58.6702 500.87 52.5602 484.68C51.9902 483.17 48.6702 484.71 48.1302 483.2C47.4402 481.29 45.5202 467.47 45.1702 466.2H45.1602Z" fill="#F3B25D"/>
<path d="M388.073 37.57C400.153 39.29 418.213 46.51 423.543 58.26C424.053 59.39 426.193 66.89 425.763 67.13C361.783 58.02 300.083 137.63 248.403 126.25C244.283 125.34 236.163 118.34 235.843 113.69C234.503 94.71 284.323 85.64 297.183 78.96C318.413 67.93 328.523 48.78 355.563 40.53C369.613 36.25 373.303 35.47 388.083 37.57H388.073Z" fill="#FCE3AF"/>
<path d="M711.75 247.45L710.27 251.15C680.08 176.66 592.71 118.71 580.2 103.35C579.5 102.5 568.07 84.81 571.33 84.87C628.16 119.55 677.41 172.12 707.31 231.93C707.67 232.65 710.44 244.43 711.74 247.45H711.75Z" fill="#F8CB81"/>
<path d="M558.042 77.48C514.872 64.19 469.232 53.39 423.542 58.27C418.212 46.51 400.152 39.3 388.072 37.58L381.422 33.15C425.342 32.74 470.172 40.78 511.492 55.32C511.992 55.5 515.432 59.29 520.362 61.23C523.972 62.65 530.232 61.03 530.712 61.23C535.402 63.21 549.132 72.57 558.052 77.49L558.042 77.48Z" fill="#F8CB81"/>
<path d="M355.552 40.53C328.512 48.78 318.402 67.92 297.172 78.96C284.312 85.64 234.502 94.71 235.832 113.69C236.162 118.34 244.272 125.35 248.392 126.25C300.072 137.63 361.772 58.02 425.752 67.13C426.182 66.89 424.052 59.39 423.532 58.26C469.222 53.39 514.862 64.19 558.032 77.47C562.462 79.91 567.012 82.23 571.332 84.86C568.072 84.8 579.502 102.48 580.202 103.34C592.702 118.7 680.082 176.66 710.272 251.14L711.752 247.44C711.832 247.63 714.142 246.84 714.712 248.18C717.712 255.27 719.522 264.95 722.102 272.57C721.792 307.21 727.622 341.93 725.062 376.77C721.172 429.5 694.912 513.66 668.892 560.05C583.832 711.71 399.662 749.87 246.912 680.51L181.882 631.74C133.262 630.51 80.4917 538.74 61.4217 497.98C57.5417 489.69 49.8317 462.94 45.1617 466.2C20.8317 375.8 47.9317 254.02 102.802 178.72C141.202 126.03 200.612 78.49 261.692 55.3C284.942 46.47 335.272 33.04 359.242 33.13C375.872 33.19 356.412 35.56 355.542 40.52L355.552 40.53Z" fill="url(#paint0_linear_179_602)"/>
<path d="M474.508 512.478C428.736 590.463 581.055 640.208 569.844 522.012C615.694 597.971 510.63 658.372 466.884 595.417C462.007 588.399 453.48 563.772 453.531 555.373C453.57 548.755 463.272 508.647 474.508 512.465V512.478Z" fill="#E69F53"/>
<path d="M557.233 304.359C600.14 303.606 629.377 271.866 612.909 228.785C623.888 206.598 648.644 286.438 599.979 316.28C543.389 350.979 484.807 291.591 499.553 247.675C503.375 236.306 504.33 265.852 511.488 277.504C522.399 295.264 537.724 304.696 557.22 304.346L557.233 304.359Z" fill="#F3B25D"/>
<path d="M347.608 395.552C386.49 465.154 491.214 385.643 434.372 329.444C438.663 315.985 462.073 358.529 463.289 369.724C468.88 421.198 416.581 458.459 369.299 436.866C355.015 430.339 324.701 385.042 347.608 395.552Z" fill="#F3B25D"/>
<path d="M117.687 461.731C138.667 493.021 188.467 475.861 185.677 435.131C185.647 434.641 185.737 434.131 185.677 433.651C192.217 418.421 202.607 453.811 185.677 475.771C161.087 507.671 101.497 491.501 105.127 445.471C107.727 443.701 111.757 463.721 117.687 461.731Z" fill="#F3B25D"/>
<path d="M610.136 418.193C629.076 446.733 673.797 429.443 670.737 396.023C681.617 380.173 684.907 434.323 653.737 443.323C613.747 454.863 593.816 408.423 610.136 418.193Z" fill="#F3B25D"/>
<path d="M290.521 516.064C314.591 544.134 360.791 518.034 346.691 480.594C357.991 485.304 355.951 509.034 348.171 521.244C330.421 549.094 279.671 543.514 277.961 504.244C285.871 504.134 280.421 516.014 290.521 516.064Z" fill="#E69F53"/>
<path d="M370.572 614.686C394.642 642.756 440.842 616.656 426.742 579.216C438.042 583.926 436.002 607.656 428.222 619.866C410.472 647.716 359.722 642.136 358.012 602.866C365.922 602.756 360.472 614.636 370.572 614.686Z" fill="#E69F53"/>
<path d="M90.2448 381.95C125.195 373.22 116.735 427.11 87.2848 411.51C71.5548 403.17 79.3848 384.66 90.2448 381.95Z" fill="#FCE3AF"/>
<path d="M195.181 553.4C223.441 546.05 226.941 605.36 196.661 587.39C183.681 579.69 185.351 555.95 195.181 553.4Z" fill="#FCE3AF"/>
<path d="M341.513 240.06C368.543 236.61 368.103 271.27 351.863 274.05C332.163 277.43 320.003 242.8 341.513 240.06Z" fill="#FCE3AF"/>
<path d="M542.525 117.39C560.065 115.37 560.845 148.12 546.955 154.34C525.575 163.91 522.635 119.68 542.525 117.39Z" fill="#FCE3AF"/>
<path d="M659.285 245.97C686.105 242.26 676.485 282.51 653.375 275.53C640.995 271.79 645.075 247.94 659.285 245.97Z" fill="#F9DEBC"/>
<path d="M423.542 176.51C435.212 158.28 433.762 141.21 417.632 126.26C413.372 121.07 430.342 133.59 430.932 134.39C461.632 175.79 397.622 219.83 368.852 178.73L371.072 176.51C384.272 192.88 411.612 195.13 423.542 176.51Z" fill="#F3B25D"/>
<path d="M384.375 548.97C404.375 541.75 415.675 577.01 397.675 580.01C380.325 582.9 372.945 553.09 384.375 548.97Z" fill="#FCE3AF"/>
<path d="M481.924 89.3C508.094 83.1 502.304 125.84 478.964 115.9C467.774 111.14 471.664 91.72 481.924 89.3Z" fill="#FCE3AF"/>
<path d="M422.803 633.22C448.873 627.04 443.474 665.07 421.324 659.82C409.264 656.96 411.383 635.92 422.803 633.22Z" fill="#F9DEBC"/>
<path d="M150.844 330.22C176.494 324.36 174.394 361.16 149.364 355.35C135.074 352.03 140.964 332.48 150.844 330.22Z" fill="#FCE3AF"/>
<path d="M569.122 467.68C591.202 465.22 584.132 496.16 564.692 491.33C552.472 488.29 558.262 468.89 569.122 467.68Z" fill="#FCE3AF"/>
<path d="M88.7616 300.66C100.972 296.7 103.402 316.82 93.1916 316.92C87.2216 316.98 80.7516 303.26 88.7616 300.66Z" fill="#F9DEBC"/>
<path d="M137.036 246.008C156.806 276.638 207.166 264.008 210.936 228.268C211.716 220.908 210.476 214.448 207.976 207.578C217.286 211.538 220.746 233.218 219.796 242.308C217.066 268.568 190.666 284.718 165.846 282.958C150.486 281.868 150.476 275.998 149.586 275.568C135.146 268.578 123.076 260.528 119.286 242.308C114.046 217.118 131.616 194.578 132.586 203.878C121.876 211.268 127.896 247.638 137.016 245.998L137.036 246.008Z" fill="#F3B25D"/>
<path d="M207.977 207.578C210.477 214.448 211.707 220.918 210.937 228.268C207.047 224.478 201.137 242.148 192.457 247.478C174.547 258.488 152.827 253.168 139.987 237.868C133.377 229.998 132.967 219.078 134.077 208.308L139.987 214.958C156.037 258.578 221.747 234.268 200.587 197.218C204.207 198.828 206.707 204.078 207.977 207.568V207.578Z" fill="#6A2714"/>
<path d="M139.986 214.968L134.076 208.318C132.966 219.088 133.376 230.008 139.986 237.878C152.826 253.178 174.546 258.498 192.456 247.488C201.136 242.148 207.046 224.488 210.936 228.278C207.166 264.008 156.806 276.648 137.036 246.018C127.736 231.608 128.206 217.678 135.556 203.158C140.336 202.078 137.276 208.028 139.986 214.978V214.968Z" fill="#6A2714"/>
<path d="M200.585 197.238C221.745 234.288 156.035 258.588 139.985 214.978C137.275 208.028 140.325 202.078 135.555 203.158C148.735 177.128 187.175 173.768 200.585 197.248V197.238Z" fill="#8C4533"/>
<path d="M159.945 188.368C176.735 184.488 186.585 196.698 189.505 189.848C213.055 228.268 143.415 223.008 148.855 197.978C149.445 195.258 157.745 188.878 159.945 188.368Z" fill="#AE6E60"/>
<path d="M569.842 522.012C581.052 640.208 428.734 590.463 474.505 512.478C484.439 495.552 498.268 494.533 501.197 493.411C483.084 503.977 466.868 516.426 478.311 539.17C460.482 525.637 476.273 565.371 490.709 573.486C529.192 595.12 587.799 550.664 553.625 506.75L552.671 510.569C550.271 503.177 536.996 494.159 529.785 491.502C550.852 493.785 559.624 505.099 569.829 522.012H569.842Z" fill="#6A2714"/>
<path d="M478.313 539.17C496.439 575.176 566.786 553.915 552.673 510.569L553.628 506.75C587.802 550.664 529.181 595.12 490.711 573.486C476.275 565.371 460.484 525.637 478.313 539.17Z" fill="#6A2714"/>
<path d="M506.912 491.502C514.407 492.082 522.354 490.702 529.798 491.502C536.996 494.159 550.271 503.177 552.683 510.569C566.784 553.915 496.449 575.176 478.324 539.17C466.881 516.426 483.097 503.977 501.21 493.411C503.545 492.521 504.28 492.16 506.925 491.502H506.912Z" fill="#8C4533"/>
<path d="M527.002 506.11C521.232 505.49 515.072 506.56 509.262 506.11C514.542 504.82 511.492 500.38 527.002 506.11Z" fill="#6A2714"/>
<path d="M505.954 497.217C546.695 489.876 542.98 538.047 502.136 529.636C480.411 525.16 486.191 500.777 505.954 497.217Z" fill="#AE6E60"/>
<path d="M296.92 235.62C261.44 296.07 379.51 334.63 370.82 243.01C406.36 301.89 324.92 348.71 291.01 299.91C287.23 294.47 280.62 275.38 280.66 268.87C280.69 263.74 288.21 232.65 296.92 235.61V235.62Z" fill="#E69F53"/>
<path d="M370.822 243.01C379.512 334.63 261.443 296.07 296.923 235.62C304.623 222.5 315.342 221.71 317.612 220.84C303.572 229.03 291.003 238.68 299.873 256.31C286.053 245.82 298.293 276.62 309.483 282.91C339.313 299.68 384.742 265.22 358.252 231.18L357.512 234.14C355.652 228.41 345.362 221.42 339.772 219.36C356.102 221.13 362.903 229.9 370.813 243.01H370.822Z" fill="#6A2714"/>
<path d="M299.873 256.31C313.923 284.22 368.453 267.74 357.513 234.14L358.253 231.18C384.743 265.22 339.303 299.68 309.483 282.91C298.293 276.62 286.053 245.82 299.873 256.31Z" fill="#6A2714"/>
<path d="M322.043 219.36C327.853 219.81 334.013 218.74 339.783 219.36C345.363 221.42 355.653 228.41 357.523 234.14C368.453 267.74 313.933 284.22 299.883 256.31C291.013 238.68 303.583 229.03 317.623 220.84C319.433 220.15 320.003 219.87 322.053 219.36H322.043Z" fill="#8C4533"/>
<path d="M321.301 223.79C352.881 218.1 350.001 255.44 318.341 248.92C301.501 245.45 305.981 226.55 321.301 223.79Z" fill="#AE6E60"/>
<path d="M434.375 329.445C491.216 385.629 386.492 465.154 347.61 395.552C337.338 377.174 338.386 373.176 343.473 354.238C341.908 372.184 343.795 369.976 353.802 381.087C329.832 372.477 363.893 404.427 367.233 405.881C368.561 406.454 391.244 408.69 396.15 407.949C436.513 401.856 456.36 341.282 415.772 327.39C410.895 321.464 406.269 317.733 398.218 319.13L401.321 314.993C408.7 315.622 429.595 324.721 434.375 329.459V329.445Z" fill="#6A2714"/>
<path d="M353.801 381.101C356.456 382.051 361.208 386.901 363.095 387.292C409.161 396.824 437.91 354.252 415.772 327.39C456.359 341.296 436.512 401.856 396.149 407.949C391.243 408.69 368.56 406.454 367.232 405.881C363.892 404.427 329.832 372.491 353.801 381.087V381.101Z" fill="#6A2714"/>
<path d="M401.324 314.993L398.221 319.13C406.271 317.732 410.897 321.464 415.775 327.39C437.913 354.252 409.164 396.824 363.099 387.292C361.212 386.901 356.46 382.051 353.804 381.101C343.797 369.976 341.911 372.184 343.476 354.252C350.939 326.482 371.876 312.505 401.31 315.007L401.324 314.993Z" fill="#8C4533"/>
<path d="M377.563 323.253C407.304 319.2 408.562 352.142 383.754 360.43C336.165 376.349 350.589 326.929 377.563 323.253Z" fill="#AE6E60"/>
<path d="M215.069 385.075C235.298 446.14 330.37 399.056 293.873 345.882C299.319 335.869 311.401 373.14 310.663 382.196C307.267 423.835 260.16 445.41 225.976 421.11C215.65 413.767 198.515 373.264 215.069 385.075Z" fill="#F3B25D"/>
<path d="M293.873 345.882C330.372 399.045 235.298 446.14 215.069 385.076C209.723 368.95 211.161 365.942 218.072 351.709C214.103 365.692 215.934 364.229 222.174 374.554C204.49 364.088 226.622 394.584 229.048 396.243C230.013 396.899 247.647 402.12 251.647 402.279C284.558 403.587 309.494 358.605 279.444 341.426C276.48 335.989 273.382 332.329 266.79 332.212L269.878 329.406C275.629 331.026 290.803 341.412 293.87 345.894L293.873 345.882Z" fill="#6A2714"/>
<path d="M222.174 374.566C224.133 375.722 227.162 380.288 228.597 380.885C263.651 395.441 292.904 366.078 279.446 341.426C309.493 358.616 284.56 403.587 251.649 402.279C247.649 402.12 230.014 396.899 229.049 396.243C226.623 394.584 204.489 364.099 222.176 374.555L222.174 374.566Z" fill="#6A2714"/>
<path d="M269.879 329.406L266.792 332.212C273.383 332.329 276.482 335.989 279.446 341.426C292.905 366.078 263.651 395.441 228.598 380.885C227.162 380.288 224.134 375.722 222.174 374.566C215.936 364.229 214.105 365.691 218.072 351.72C228.208 330.849 246.923 322.957 269.866 329.415L269.879 329.406Z" fill="#8C4533"/>
<path d="M249.792 332.338C273.976 333.648 269.964 359.943 249.046 362.739C208.916 368.118 227.859 331.15 249.792 332.338Z" fill="#AE6E60"/>
<path d="M387.639 255.189C395.381 296.135 460.471 274.072 441.605 236.794C445.962 230.833 450.518 255.802 449.265 261.553C443.508 287.997 411.408 297.802 391.547 279.264C385.547 273.661 378.025 246.183 387.639 255.189Z" fill="#F3B25D"/>
<path d="M441.605 236.795C460.474 274.065 395.382 296.136 387.64 255.19C385.593 244.377 386.775 242.569 392.435 234.024C388.685 242.661 389.986 241.879 393.106 249.045C382.65 240.805 394.241 262.287 395.656 263.561C396.219 264.065 407.094 268.932 409.648 269.378C430.667 273.045 450.542 246.306 432.724 232.694C431.288 228.948 429.613 226.332 425.391 225.691L427.614 224.154C431.168 225.688 440.019 233.661 441.603 236.802L441.605 236.795Z" fill="#6A2714"/>
<path d="M393.101 249.051C394.26 249.962 395.812 253.154 396.683 253.661C417.94 266.019 439.245 249.678 432.722 232.694C450.537 246.312 430.665 273.045 409.646 269.378C407.091 268.932 396.217 264.065 395.654 263.561C394.239 262.287 382.646 240.812 393.104 249.044L393.101 249.051Z" fill="#6A2714"/>
<path d="M427.612 224.154L425.388 225.691C429.61 226.332 431.285 228.948 432.722 232.694C439.245 249.679 417.94 266.019 396.683 253.661C395.812 253.154 394.26 249.963 393.101 249.052C389.984 241.879 388.683 242.661 392.43 234.031C400.731 221.501 413.426 218.041 427.602 224.159L427.612 224.154Z" fill="#8C4533"/>
<path d="M414.464 224.311C429.879 227.23 425.044 243.769 411.373 243.767C385.144 243.773 400.483 221.664 414.464 224.311Z" fill="#AE6E60"/>
<path d="M508.461 385.579C515.017 420.253 570.135 401.569 554.159 370.002C557.849 364.954 561.707 386.098 560.646 390.968C555.771 413.361 528.588 421.664 511.77 405.966C506.689 401.221 500.319 377.953 508.461 385.579Z" fill="#F3B25D"/>
<path d="M554.159 370.002C570.137 401.564 515.017 420.253 508.461 385.58C506.727 376.423 507.728 374.892 512.521 367.656C509.346 374.97 510.448 374.307 513.09 380.376C504.236 373.399 514.051 391.59 515.249 392.669C515.726 393.095 524.934 397.217 527.098 397.594C544.897 400.7 561.727 378.057 546.638 366.53C545.422 363.358 544.004 361.142 540.428 360.599L542.311 359.298C545.321 360.598 552.816 367.349 554.157 370.008L554.159 370.002Z" fill="#6A2714"/>
<path d="M513.086 380.381C514.067 381.153 515.381 383.856 516.119 384.285C534.119 394.749 552.161 380.912 546.636 366.529C561.723 378.062 544.895 400.699 527.096 397.594C524.932 397.217 515.724 393.095 515.247 392.668C514.049 391.589 504.232 373.404 513.088 380.376L513.086 380.381Z" fill="#6A2714"/>
<path d="M542.31 359.298L540.427 360.599C544.002 361.142 545.421 363.358 546.637 366.53C552.161 380.913 534.119 394.75 516.119 384.285C515.382 383.856 514.067 381.153 513.086 380.382C510.446 374.307 509.344 374.97 512.517 367.662C519.547 357.051 530.297 354.122 542.302 359.302L542.31 359.298Z" fill="#8C4533"/>
<path d="M531.175 359.431C544.229 361.903 540.135 375.908 528.558 375.906C506.347 375.912 519.336 357.19 531.175 359.431Z" fill="#AE6E60"/>
<path d="M207.015 582.922C213.572 617.595 268.69 598.911 252.714 567.345C256.403 562.297 260.261 583.441 259.201 588.311C254.325 610.704 227.143 619.007 210.324 603.308C205.244 598.564 198.874 575.295 207.015 582.922Z" fill="#F3B25D"/>
<path d="M252.714 567.345C268.692 598.906 213.572 617.596 207.016 582.922C205.282 573.766 206.283 572.235 211.076 564.999C207.901 572.312 209.003 571.65 211.644 577.718C202.79 570.741 212.605 588.932 213.804 590.011C214.281 590.438 223.489 594.56 225.652 594.937C243.451 598.042 260.282 575.399 245.193 563.872C243.977 560.7 242.559 558.485 238.983 557.942L240.866 556.641C243.876 557.94 251.37 564.691 252.712 567.351L252.714 567.345Z" fill="#6A2714"/>
<path d="M211.64 577.724C212.622 578.495 213.936 581.198 214.673 581.627C232.674 592.092 250.715 578.255 245.191 563.872C260.278 575.405 243.449 598.042 225.65 594.936C223.487 594.559 214.279 590.438 213.802 590.011C212.603 588.932 202.786 570.747 211.642 577.718L211.64 577.724Z" fill="#6A2714"/>
<path d="M240.864 556.641L238.981 557.942C242.557 558.485 243.975 560.7 245.191 563.872C250.716 578.255 232.674 592.092 214.673 581.627C213.936 581.198 212.622 578.496 211.641 577.724C209.001 571.65 207.899 572.312 211.072 565.004C218.102 554.394 228.851 551.464 240.856 556.645L240.864 556.641Z" fill="#8C4533"/>
<path d="M229.73 556.774C242.784 559.246 238.69 573.251 227.113 573.249C204.902 573.254 217.891 554.532 229.73 556.774Z" fill="#AE6E60"/>
<path d="M487.629 152.224C494.185 186.898 549.303 168.214 533.327 136.647C537.017 131.599 540.875 152.743 539.814 157.613C534.939 180.006 507.756 188.31 490.938 172.611C485.857 167.867 479.487 144.598 487.629 152.224Z" fill="#F3B25D"/>
<path d="M533.327 136.648C549.305 168.209 494.185 186.898 487.629 152.225C485.895 143.068 486.896 141.537 491.689 134.301C488.514 141.615 489.616 140.953 492.258 147.021C483.404 140.044 493.219 158.235 494.417 159.314C494.894 159.741 504.102 163.862 506.266 164.24C524.065 167.345 540.895 144.702 525.806 133.175C524.59 130.003 523.172 127.788 519.596 127.245L521.479 125.943C524.489 127.243 531.984 133.994 533.325 136.654L533.327 136.648Z" fill="#6A2714"/>
<path d="M492.254 147.027C493.235 147.798 494.549 150.501 495.286 150.93C513.287 161.395 531.329 147.558 525.804 133.175C540.891 144.707 524.063 167.345 506.264 164.239C504.1 163.862 494.892 159.74 494.415 159.314C493.217 158.235 483.4 140.049 492.256 147.021L492.254 147.027Z" fill="#6A2714"/>
<path d="M521.478 125.943L519.595 127.245C523.17 127.788 524.589 130.003 525.805 133.175C531.329 147.558 513.287 161.395 495.287 150.93C494.55 150.501 493.235 147.799 492.254 147.027C489.614 140.953 488.512 141.615 491.685 134.307C498.715 123.697 509.465 120.767 521.47 125.947L521.478 125.943Z" fill="#8C4533"/>
<path d="M510.343 126.077C523.397 128.548 519.303 142.553 507.726 142.552C485.515 142.557 498.504 123.835 510.343 126.077Z" fill="#AE6E60"/>
<path d="M439.929 674.252C446.486 708.925 501.604 690.242 485.628 658.675C489.318 653.627 493.175 674.771 492.115 679.641C487.239 702.034 460.057 710.337 443.238 694.638C438.158 689.894 431.788 666.626 439.929 674.252Z" fill="#F3B25D"/>
<path d="M485.628 658.675C501.606 690.236 446.486 708.926 439.93 674.252C438.196 665.096 439.197 663.565 443.99 656.329C440.815 663.643 441.917 662.98 444.558 669.049C435.704 662.072 445.519 680.263 446.718 681.342C447.195 681.768 456.403 685.89 458.566 686.267C476.366 689.373 493.196 666.729 478.107 655.203C476.891 652.031 475.473 649.815 471.897 649.272L473.78 647.971C476.79 649.27 484.284 656.022 485.626 658.681L485.628 658.675Z" fill="#6A2714"/>
<path d="M444.554 669.054C445.536 669.826 446.85 672.528 447.587 672.958C465.588 683.422 483.63 669.585 478.105 655.202C493.192 666.735 476.364 689.372 458.564 686.267C456.401 685.889 447.193 681.768 446.716 681.341C445.517 680.262 435.7 662.077 444.556 669.048L444.554 669.054Z" fill="#6A2714"/>
<path d="M473.778 647.971L471.895 649.272C475.471 649.815 476.889 652.031 478.105 655.203C483.63 669.586 465.588 683.423 447.588 672.958C446.85 672.529 445.536 669.826 444.555 669.055C441.915 662.98 440.813 663.643 443.986 656.335C451.016 645.724 461.766 642.795 473.771 647.975L473.778 647.971Z" fill="#8C4533"/>
<path d="M462.644 648.104C475.698 650.576 471.604 664.581 460.027 664.579C437.816 664.585 450.805 645.862 462.644 648.104Z" fill="#AE6E60"/>
<path d="M211.866 132.261C220.232 176.504 290.562 152.664 270.177 112.385C274.885 105.944 279.807 132.923 278.454 139.137C272.233 167.71 237.548 178.305 216.088 158.274C209.606 152.22 201.478 122.53 211.866 132.261Z" fill="#F3B25D"/>
<path d="M270.179 112.385C290.567 152.657 220.234 176.505 211.868 132.262C209.656 120.578 210.934 118.624 217.049 109.391C212.998 118.724 214.404 117.878 217.775 125.622C206.477 116.719 219.001 139.93 220.53 141.307C221.139 141.852 232.888 147.111 235.649 147.592C258.36 151.555 279.835 122.662 260.583 107.954C259.031 103.907 257.221 101.08 252.659 100.387L255.061 98.7267C258.901 100.385 268.464 108.999 270.176 112.393L270.179 112.385Z" fill="#6A2714"/>
<path d="M217.767 125.629C219.019 126.613 220.696 130.062 221.636 130.609C244.605 143.962 267.626 126.306 260.577 107.954C279.827 122.669 258.355 151.554 235.643 147.592C232.883 147.11 221.133 141.851 220.524 141.307C218.995 139.93 206.469 116.726 217.769 125.621L217.767 125.629Z" fill="#6A2714"/>
<path d="M255.058 98.7266L252.655 100.387C257.217 101.08 259.027 103.907 260.579 107.954C267.628 126.307 244.607 143.963 221.638 130.61C220.698 130.062 219.021 126.614 217.769 125.629C214.4 117.878 212.994 118.723 217.043 109.399C226.013 95.8597 239.729 92.1218 255.048 98.7316L255.058 98.7266Z" fill="#8C4533"/>
<path d="M240.849 98.8967C257.506 102.05 252.282 119.921 237.51 119.919C209.169 119.925 225.743 96.0362 240.849 98.8967Z" fill="#AE6E60"/>
<path d="M431.459 460.84C418.642 486.293 463.16 501.37 468.411 473.284C473.255 471.858 465.35 487.311 462.279 489.914C448.16 501.88 426.652 493.861 423.573 475.537C422.644 470.001 429.982 451.953 431.459 460.84Z" fill="#F3B25D"/>
<path d="M468.409 473.285C463.162 501.367 418.64 486.294 431.457 460.84C434.84 454.117 436.234 453.627 442.859 451.34C437.233 454.471 438.265 454.587 436.98 459.776C434.727 450.955 432.091 467.439 432.33 468.719C432.426 469.226 436.308 476.39 437.51 477.694C447.4 488.423 469.308 482.165 465.291 467.366C466.068 464.735 466.246 462.617 464.22 460.514L466.066 460.604C467.358 462.915 468.85 470.923 468.405 473.287L468.409 473.285Z" fill="#6A2714"/>
<path d="M436.975 459.777C437.226 460.754 436.742 463.132 437.004 463.769C443.41 479.316 461.772 479.3 465.29 467.364C469.303 482.166 447.399 488.422 437.51 477.693C436.308 476.389 432.426 469.225 432.329 468.717C432.091 467.437 434.722 450.956 436.979 459.774L436.975 459.777Z" fill="#6A2714"/>
<path d="M466.066 460.603L464.22 460.513C466.246 462.617 466.068 464.734 465.291 467.365C461.773 479.3 443.41 479.317 437.004 463.769C436.742 463.132 437.226 460.754 436.976 459.777C438.265 454.586 437.233 454.47 442.855 451.341C452.572 447.988 460.904 451.387 466.059 460.602L466.066 460.603Z" fill="#8C4533"/>
<path d="M458.861 455.223C466.019 463.216 456.518 470.187 449.095 464.503C434.849 453.603 452.369 447.973 458.861 455.223Z" fill="#AE6E60"/>
<path d="M419.14 694.935C446.96 744.735 521.89 687.845 481.22 647.635C484.29 638.005 501.04 668.445 501.91 676.455C505.91 713.285 468.49 739.945 434.66 724.495C424.44 719.825 402.75 687.415 419.14 694.935Z" fill="#F3B25D"/>
<path d="M424.009 563.3C464.679 603.5 389.749 660.4 361.929 610.6C354.579 597.45 355.329 594.59 358.969 581.04C357.849 593.88 359.199 592.3 366.359 600.25C349.209 594.09 373.579 616.95 375.969 617.99C376.919 618.4 393.149 620 396.659 619.47C425.539 615.11 439.739 571.77 410.699 561.83C407.209 557.59 403.899 554.92 398.139 555.92L400.359 552.96C405.639 553.41 420.589 559.92 424.009 563.31V563.3Z" fill="#6A2714"/>
<path d="M366.359 600.26C368.259 600.94 371.659 604.41 373.009 604.69C405.969 611.51 426.539 581.05 410.699 561.83C439.739 571.78 425.539 615.11 396.659 619.47C393.149 620 376.919 618.4 375.969 617.99C373.579 616.95 349.209 594.1 366.359 600.25V600.26Z" fill="#6A2714"/>
<path d="M400.36 552.96L398.14 555.92C403.9 554.92 407.21 557.59 410.7 561.83C426.54 581.05 405.97 611.51 373.01 604.69C371.66 604.41 368.26 600.94 366.36 600.26C359.2 592.3 357.85 593.88 358.97 581.05C364.31 561.18 379.29 551.18 400.35 552.97L400.36 552.96Z" fill="#8C4533"/>
<path d="M383.359 558.87C404.639 555.97 405.539 579.54 387.789 585.47C353.739 596.86 364.059 561.5 383.359 558.87Z" fill="#AE6E60"/>
<path d="M135.424 407.051C110.894 421.021 132.704 451.251 155.374 449.911C173.804 448.821 190.864 421.221 163.504 407.051C174.304 407.251 184.464 423.931 185.674 433.651C185.734 434.131 185.644 434.641 185.674 435.131C179.624 441.641 179.064 453.181 171.634 458.781C146.174 477.951 108.884 456.581 116.204 421.831C120.054 414.901 126.744 406.631 135.414 407.051H135.424Z" fill="#6A2714"/>
<path d="M185.676 435.131C188.466 475.861 138.666 493.031 117.686 461.731C108.326 447.771 108.276 436.111 116.206 421.821C108.886 456.571 146.166 477.941 171.636 458.771C179.076 453.171 179.636 441.631 185.676 435.121V435.131Z" fill="#6A2714"/>
<path d="M163.504 407.051C190.864 421.231 173.804 448.831 155.374 449.911C132.694 451.251 110.894 421.021 135.424 407.051C147.584 400.121 151.844 401.011 163.504 407.051Z" fill="#8C4533"/>
<path d="M145.032 405.571C163.982 401.371 175.752 424.861 162.772 429.221C144.832 435.241 125.882 409.811 145.032 405.571Z" fill="#AE6E60"/>
<path d="M612.904 228.784C629.359 271.866 600.136 303.592 557.229 304.359C499.885 296.515 490.01 206.921 549.277 200.947V202.938C548.483 202.992 547.192 204.082 543.317 204.929C510.138 212.128 517.524 240.598 517.47 248.684C517.403 258.492 519.26 259.421 519.462 260.618C519.516 260.928 514.201 258.708 515.479 265.596C529.889 292.479 562.597 299.394 588.067 282.495C611.505 266.955 612.137 217.832 595.023 218.855C589.103 201.162 565.369 199.332 549.291 200.96C568.961 188.192 604.979 208.024 612.931 228.798L612.904 228.784Z" fill="#6A2714"/>
<path d="M543.301 204.929C510.835 227.681 531.824 249.289 554.239 240.719C568.905 235.122 579.467 213.958 559.217 204.929C624.768 214.415 551.548 292.169 517.454 248.684C517.508 240.598 510.121 212.128 543.301 204.929Z" fill="#AE6E60"/>
<path d="M519.449 260.605C546.466 297.363 609.447 261.964 595.023 218.842C612.138 217.819 611.505 266.942 588.067 282.482C562.598 299.367 529.89 292.465 515.48 265.583C514.202 258.708 519.516 260.928 519.462 260.605H519.449Z" fill="#6A2714"/>
<path d="M595.009 218.842C609.432 261.95 546.451 297.349 519.435 260.605C519.233 259.407 517.376 258.479 517.443 248.67C551.537 292.156 624.757 214.401 559.206 204.916C556.758 204.566 549.775 202.884 549.263 202.925V200.933C565.342 199.319 589.076 201.135 594.996 218.828L595.009 218.842Z" fill="#8C4533"/>
<path d="M559.221 204.929C579.471 213.958 568.922 235.122 554.243 240.719C531.828 249.276 510.839 227.681 543.305 204.929C547.18 204.082 548.485 202.992 549.265 202.938C549.776 202.898 556.759 204.566 559.208 204.929H559.221Z" fill="#AE6E60"/>
<path d="M670.74 396.023C673.8 429.443 629.08 446.733 610.14 418.193C601.67 405.433 603.41 400.973 607.18 388.633C600.37 427.903 665.65 414.733 654.48 380.503C653.91 378.743 647.22 370.383 645.61 369.413C658.8 371.163 669.5 382.463 670.74 396.013V396.023Z" fill="#6A2714"/>
<path d="M629.352 367.943C630.182 371.133 638.702 368.503 645.612 369.423C647.212 370.383 653.902 378.753 654.482 380.513C665.652 414.743 600.382 427.913 607.182 388.643C610.962 376.283 615.012 371.053 629.352 367.953V367.943Z" fill="#8C4533"/>
<path d="M625.662 373.853C652.002 369.223 643.862 401.223 621.232 398.983C604.142 397.293 614.092 375.893 625.662 373.853Z" fill="#AE6E60"/>
<path d="M346.68 482.565C360.79 520.005 314.58 546.105 290.51 518.035C275.47 500.495 279.75 471.795 302.33 466.305C286 475.095 285.6 482.205 286.07 495.865C286.74 515.365 306.6 526.095 325.24 518.035C339.43 511.895 353.56 488.565 333.37 472.215C320.8 462.035 317.83 466.455 315.63 461.865C328.72 462.155 342.05 470.305 346.67 482.555L346.68 482.565Z" fill="#6A2714"/>
<path d="M286.082 495.865C304.292 520.855 343.432 502.555 333.382 472.215C353.572 488.565 339.442 511.895 325.252 518.035C306.622 526.095 286.752 515.365 286.082 495.865Z" fill="#6A2714"/>
<path d="M315.639 461.865C317.829 466.445 320.799 462.025 333.379 472.215C343.429 502.545 304.289 520.855 286.079 495.865C285.609 482.205 286.009 475.095 302.339 466.305C302.959 465.975 303.419 461.605 315.639 461.875V461.865Z" fill="#8C4533"/>
<path d="M307.51 467.785C334.34 464.345 324.6 498.435 298.64 491.435C284.2 487.545 295.99 469.265 307.51 467.785Z" fill="#AE6E60"/>
<path d="M635.001 557.453C659.071 585.523 705.271 559.423 691.171 521.983C702.471 526.693 700.431 550.423 692.651 562.633C674.901 590.483 624.151 584.903 622.441 545.633C630.351 545.523 624.901 557.403 635.001 557.453Z" fill="#E69F53"/>
<path d="M691.161 523.954C705.271 561.394 659.061 587.494 634.991 559.424C619.951 541.884 624.231 513.184 646.811 507.694C630.481 516.484 630.081 523.594 630.551 537.254C631.221 556.754 651.081 567.484 669.721 559.424C683.911 553.284 698.041 529.954 677.851 513.604C665.281 503.424 662.311 507.844 660.111 503.254C673.201 503.544 686.531 511.694 691.151 523.944L691.161 523.954Z" fill="#6A2714"/>
<path d="M630.562 537.254C648.772 562.244 687.913 543.944 677.863 513.604C698.053 529.954 683.923 553.284 669.733 559.424C651.103 567.484 631.233 556.754 630.562 537.254Z" fill="#6A2714"/>
<path d="M660.119 503.254C662.309 507.834 665.279 503.414 677.859 513.604C687.909 543.934 648.769 562.244 630.559 537.254C630.089 523.594 630.489 516.484 646.819 507.694C647.439 507.364 647.899 502.994 660.119 503.264V503.254Z" fill="#8C4533"/>
<path d="M651.99 509.174C678.82 505.734 669.08 539.824 643.12 532.824C628.68 528.934 640.47 510.654 651.99 509.174Z" fill="#AE6E60"/>
<path d="M78.6648 333.116C83.8589 363.86 128.586 365.079 134.669 331.896C140.787 340.211 129 356.472 118.072 361.914C93.1422 374.324 58.8948 348.236 74.7257 319.116C80.4894 322.474 71.3881 328.691 78.6648 333.116Z" fill="#E69F53"/>
<path d="M133.807 333.316C127.731 366.503 82.9966 365.28 77.8025 334.536C74.5572 315.325 90.1229 296.446 108.825 302.292C93.205 301.547 89.826 306.511 84.2291 316.586C76.2386 330.968 85.9264 347.353 102.899 349.629C115.821 351.359 136.171 340.642 128.687 320.052C124.028 307.233 119.961 309.137 120.366 304.864C129.699 310.762 135.789 322.445 133.804 333.304L133.807 333.316Z" fill="#6A2714"/>
<path d="M84.2374 316.591C86.5356 342.563 122.772 346.349 128.695 320.058C136.179 340.647 115.829 351.364 102.907 349.634C85.942 347.362 76.247 330.973 84.2374 316.591Z" fill="#6A2714"/>
<path d="M120.374 304.867C119.966 309.129 124.033 307.226 128.695 320.056C122.776 346.341 86.5352 342.562 84.237 316.59C89.834 306.514 93.213 301.551 108.833 302.296C109.425 302.327 111.656 299.369 120.369 304.875L120.374 304.867Z" fill="#8C4533"/>
<path d="M111.922 305.612C132.805 314.787 110.951 335.188 95.2345 318.847C86.4906 309.761 102.955 301.675 111.922 305.612Z" fill="#AE6E60"/>
<path d="M535.33 469.823C559.4 497.893 605.6 471.793 591.5 434.353C602.8 439.063 600.76 462.793 592.98 475.003C575.23 502.853 524.48 497.273 522.77 458.003C530.68 457.893 525.23 469.773 535.33 469.823Z" fill="#E69F53"/>
<path d="M591.489 436.324C605.599 473.764 559.389 499.864 535.319 471.794C520.279 454.254 524.559 425.554 547.139 420.064C530.809 428.854 530.409 435.964 530.879 449.624C531.549 469.124 551.409 479.854 570.049 471.794C584.239 465.654 598.369 442.324 578.179 425.974C565.609 415.794 562.639 420.214 560.439 415.624C573.529 415.914 586.859 424.064 591.479 436.314L591.489 436.324Z" fill="#6A2714"/>
<path d="M530.891 449.624C549.101 474.614 588.241 456.314 578.191 425.974C598.381 442.324 584.251 465.654 570.061 471.794C551.431 479.854 531.561 469.124 530.891 449.624Z" fill="#6A2714"/>
<path d="M560.447 415.624C562.637 420.204 565.607 415.784 578.187 425.974C588.237 456.304 549.097 474.614 530.887 449.624C530.417 435.964 530.817 428.854 547.147 420.064C547.767 419.734 548.227 415.364 560.447 415.634V415.624Z" fill="#8C4533"/>
<path d="M552.318 421.544C579.148 418.104 569.408 452.194 543.448 445.194C529.008 441.304 540.798 423.024 552.318 421.544Z" fill="#AE6E60"/>
<path d="M255.876 681.372C279.946 709.442 326.146 683.342 312.046 645.902C323.346 650.612 321.306 674.342 313.526 686.552C295.776 714.402 245.026 708.822 243.316 669.552C251.226 669.442 245.776 681.322 255.876 681.372Z" fill="#E69F53"/>
<path d="M312.036 647.873C326.146 685.313 279.936 711.413 255.866 683.343C240.826 665.803 245.106 637.103 267.686 631.613C251.356 640.403 250.956 647.513 251.426 661.173C252.096 680.673 271.956 691.403 290.596 683.343C304.786 677.203 318.916 653.873 298.726 637.523C286.156 627.343 283.186 631.763 280.986 627.173C294.076 627.463 307.406 635.613 312.026 647.863L312.036 647.873Z" fill="#6A2714"/>
<path d="M251.438 661.173C269.647 686.163 308.788 667.863 298.738 637.523C318.928 653.873 304.798 677.203 290.608 683.343C271.978 691.403 252.108 680.673 251.438 661.173Z" fill="#6A2714"/>
<path d="M280.994 627.173C283.184 631.753 286.154 627.333 298.734 637.523C308.784 667.853 269.644 686.163 251.434 661.173C250.964 647.513 251.364 640.403 267.694 631.613C268.314 631.283 268.774 626.913 280.994 627.183V627.173Z" fill="#8C4533"/>
<path d="M272.865 633.093C299.695 629.653 289.955 663.743 263.995 656.743C249.555 652.853 261.345 634.573 272.865 633.093Z" fill="#AE6E60"/>
<path d="M401.371 120.34C422.421 144.5 381.721 167.86 368.851 143.99C368.481 143.31 369.701 140.92 367.371 141.03C372.191 126.27 386.331 119 401.361 120.34H401.371Z" fill="#AE6E60"/>
<path d="M417.633 126.25C433.763 141.21 435.223 158.27 423.543 176.5C395.943 201.89 355.963 176 367.373 141.03C369.703 140.91 368.483 143.31 368.853 143.99C365.593 150.35 369.223 157.75 374.763 161.73C362.053 164.54 391.153 184.75 410.973 173.55C430.033 162.79 420.463 145.34 426.493 143.25L416.143 132.16C414.493 127.46 411.223 126.78 408.753 123.29C412.173 124.03 414.333 125.83 417.623 126.25H417.633Z" fill="#6A2714"/>
<path d="M408.762 123.3C411.232 126.79 414.502 127.47 416.152 132.17C424.032 154.56 394.052 175.59 374.772 161.73C369.232 157.75 365.602 150.35 368.862 143.99C381.732 167.86 422.422 144.51 401.382 120.34C402.782 120.46 408.382 123.21 408.772 123.3H408.762Z" fill="#8C4533"/>
<path d="M374.764 161.73C394.054 175.59 424.024 154.56 416.144 132.17L426.494 143.26C420.464 145.35 430.034 162.8 410.974 173.56C391.154 184.75 362.054 164.55 374.764 161.74V161.73Z" fill="#6A2714"/>
<path d="M267.614 290.32C285.054 287.32 282.864 316.64 264.654 311.01C254.634 307.91 260.084 291.61 267.614 290.32Z" fill="#FCE3AF"/>
<path d="M267.612 294.75C275.502 292.82 278.222 308.02 269.092 308.05C262.442 308.08 262.412 296.02 267.612 294.75Z" fill="#FBEDD7"/>
</g>
<defs>
<linearGradient id="paint0_linear_179_602" x1="273.549" y1="67.4312" x2="493.832" y2="664.478" gradientUnits="userSpaceOnUse">
<stop stop-color="#FBD791"/>
<stop offset="1" stop-color="#F2B060"/>
</linearGradient>
<clipPath id="clip0_179_602">
<rect width="778.4" height="803.26" fill="white"/>
</clipPath>
</defs>
</svg>
