<svg width="779" height="804" viewBox="0 0 779 804" fill="none" xmlns="http://www.w3.org/2000/svg">
<g clip-path="url(#clip0_179_465)">
<path d="M581.692 752.94C457.202 820.04 321.852 820.03 197.402 752.94C86.9519 693.39 10.1019 576.7 0.821898 450.68C-2.2681 408.69 3.9419 376.33 9.6919 336.13C2.6019 418.61 15.8419 501.31 56.9919 573.35C98.4019 645.84 169.462 697.42 245.442 729.28C350.162 773.19 441.842 772.99 545.482 726.32C707.952 653.17 787.292 502.62 766.452 325.77C809.902 491.74 731.972 671.92 581.702 752.92L581.692 752.94Z" fill="#DB8337"/>
<path d="M766.441 325.79C787.281 502.63 707.951 653.19 545.471 726.34C441.831 773 350.161 773.21 245.431 729.3C169.451 697.44 98.3912 645.86 56.9812 573.37C15.8412 501.31 2.60116 418.61 9.69116 336.13C13.6512 308.45 17.9112 306.19 12.6512 264.45C20.0612 247.92 41.1312 240.8 49.6012 226.02C57.6712 211.95 57.8312 191.56 62.9012 177.25C88.3312 105.45 166.551 84.95 221.791 44.97L252.831 31.67C286.891 29.3 321.691 2.88999 340.031 0.629993C377.671 -4.00001 415.561 18.84 437.581 16.89C467.011 2.67999 506.151 11.81 535.131 24.28C583.281 45 583.631 75.38 594.251 77.49C664.941 64.61 654.111 95.87 667.411 121.09C687.691 159.53 774.831 218.13 766.441 325.8V325.79Z" fill="#F3B25D"/>
<path d="M45.1602 466.2C49.8202 462.94 57.5402 489.69 61.4202 497.98C80.4902 538.74 133.26 630.51 181.88 631.74L246.91 680.51C399.66 749.87 583.83 711.72 668.89 560.05C694.91 513.66 721.17 429.5 725.06 376.77C727.63 341.93 721.79 307.21 722.1 272.57C760.86 387.21 742.88 499.71 665.93 594.04C570.62 710.88 414.77 758.8 270.56 710.07C214 690.95 164.35 649.93 122.02 608.83C106.3 583.04 85.7902 560.45 71.7702 533.45C63.5102 517.55 58.6702 500.87 52.5602 484.68C51.9902 483.17 48.6702 484.71 48.1302 483.2C47.4402 481.29 45.5202 467.47 45.1702 466.2H45.1602Z" fill="#F3B25D"/>
<path d="M388.073 37.57C400.153 39.29 418.213 46.51 423.543 58.26C424.053 59.39 426.193 66.89 425.763 67.13C361.783 58.02 300.083 137.63 248.403 126.25C244.283 125.34 236.163 118.34 235.843 113.69C234.503 94.71 284.323 85.64 297.183 78.96C318.413 67.93 328.523 48.78 355.563 40.53C369.613 36.25 373.303 35.47 388.083 37.57H388.073Z" fill="#FCE3AF"/>
<path d="M711.75 247.45L710.27 251.15C680.08 176.66 592.71 118.71 580.2 103.35C579.5 102.5 568.07 84.81 571.33 84.87C628.16 119.55 677.41 172.12 707.31 231.93C707.67 232.65 710.44 244.43 711.74 247.45H711.75Z" fill="#F8CB81"/>
<path d="M558.042 77.48C514.872 64.19 469.232 53.39 423.542 58.27C418.212 46.51 400.152 39.3 388.072 37.58L381.422 33.15C425.342 32.74 470.172 40.78 511.492 55.32C511.992 55.5 515.432 59.29 520.362 61.23C523.972 62.65 530.232 61.03 530.712 61.23C535.402 63.21 549.132 72.57 558.052 77.49L558.042 77.48Z" fill="#F8CB81"/>
<path d="M355.552 40.53C328.512 48.78 318.402 67.92 297.172 78.96C284.312 85.64 234.502 94.71 235.832 113.69C236.162 118.34 244.272 125.35 248.392 126.25C300.072 137.63 361.772 58.02 425.752 67.13C426.182 66.89 424.052 59.39 423.532 58.26C469.222 53.39 514.862 64.19 558.032 77.47C562.462 79.91 567.012 82.23 571.332 84.86C568.072 84.8 579.502 102.48 580.202 103.34C592.702 118.7 680.082 176.66 710.272 251.14L711.752 247.44C711.832 247.63 714.142 246.84 714.712 248.18C717.712 255.27 719.522 264.95 722.102 272.57C721.792 307.21 727.622 341.93 725.062 376.77C721.172 429.5 694.912 513.66 668.892 560.05C583.832 711.71 399.662 749.87 246.912 680.51L181.882 631.74C133.262 630.51 80.4917 538.74 61.4217 497.98C57.5417 489.69 49.8317 462.94 45.1617 466.2C20.8317 375.8 47.9317 254.02 102.802 178.72C141.202 126.03 200.612 78.49 261.692 55.3C284.942 46.47 335.272 33.04 359.242 33.13C375.872 33.19 356.412 35.56 355.542 40.52L355.552 40.53Z" fill="url(#paint0_linear_179_465)"/>
<path d="M484.139 522.37C448.659 582.82 566.729 621.38 558.039 529.76C593.579 588.64 512.139 635.46 478.229 586.66C474.449 581.22 467.839 562.13 467.879 555.62C467.909 550.49 475.429 519.4 484.139 522.36V522.37Z" fill="#E69F53"/>
<path d="M558.042 281.45C589.932 280.89 611.662 257.3 599.422 225.28C607.582 208.79 625.982 268.13 589.812 290.31C547.752 316.1 504.212 271.96 515.172 239.32C518.012 230.87 518.722 252.83 524.042 261.49C532.152 274.69 543.542 281.7 558.032 281.44L558.042 281.45Z" fill="#F3B25D"/>
<path d="M347.604 395.552C386.486 465.154 491.21 385.643 434.369 329.444C438.659 315.985 462.07 358.529 463.285 369.724C468.876 421.199 416.577 458.459 369.295 436.866C355.011 430.339 324.697 385.042 347.604 395.552Z" fill="#F3B25D"/>
<path d="M117.687 461.731C138.667 493.021 188.467 475.861 185.677 435.131C185.647 434.641 185.737 434.131 185.677 433.651C192.217 418.421 202.607 453.811 185.677 475.771C161.087 507.671 101.497 491.501 105.127 445.471C107.727 443.701 111.757 463.721 117.687 461.731Z" fill="#F3B25D"/>
<path d="M610.136 418.193C629.076 446.733 673.797 429.443 670.737 396.023C681.617 380.173 684.907 434.323 653.737 443.323C613.747 454.863 593.816 408.423 610.136 418.193Z" fill="#F3B25D"/>
<path d="M290.521 516.064C314.591 544.134 360.791 518.034 346.691 480.594C357.991 485.304 355.951 509.034 348.171 521.244C330.421 549.094 279.671 543.514 277.961 504.244C285.871 504.134 280.421 516.014 290.521 516.064Z" fill="#E69F53"/>
<path d="M372.794 655.819C396.864 683.889 443.064 657.789 428.964 620.349C440.264 625.059 438.224 648.789 430.444 660.999C412.694 688.849 361.944 683.269 360.234 643.999C368.144 643.889 362.694 655.769 372.794 655.819Z" fill="#E69F53"/>
<path d="M90.2409 381.95C125.191 373.22 116.731 427.11 87.2809 411.51C71.5509 403.17 79.3809 384.66 90.2409 381.95Z" fill="#FCE3AF"/>
<path d="M195.181 553.4C223.441 546.05 226.941 605.36 196.661 587.39C183.681 579.69 185.351 555.95 195.181 553.4Z" fill="#FCE3AF"/>
<path d="M341.509 240.06C368.539 236.61 368.099 271.27 351.859 274.05C332.159 277.43 319.999 242.8 341.509 240.06Z" fill="#FCE3AF"/>
<path d="M542.521 117.39C560.061 115.37 560.841 148.12 546.951 154.34C525.571 163.91 522.631 119.68 542.521 117.39Z" fill="#FCE3AF"/>
<path d="M659.281 245.97C686.101 242.26 676.481 282.51 653.371 275.53C640.991 271.79 645.071 247.94 659.281 245.97Z" fill="#F9DEBC"/>
<path d="M423.542 176.51C435.212 158.28 433.762 141.21 417.632 126.26C413.372 121.07 430.342 133.59 430.932 134.39C461.632 175.79 397.622 219.83 368.852 178.73L371.072 176.51C384.272 192.88 411.612 195.13 423.542 176.51Z" fill="#F3B25D"/>
<path d="M384.371 548.97C404.371 541.75 415.671 577.01 397.671 580.01C380.321 582.9 372.941 553.09 384.371 548.97Z" fill="#FCE3AF"/>
<path d="M481.92 89.3C508.09 83.1 502.3 125.84 478.96 115.9C467.77 111.14 471.66 91.72 481.92 89.3Z" fill="#FCE3AF"/>
<path d="M422.8 633.22C448.87 627.04 443.47 665.07 421.32 659.82C409.26 656.96 411.38 635.92 422.8 633.22Z" fill="#F9DEBC"/>
<path d="M150.84 330.22C176.49 324.36 174.39 361.16 149.36 355.35C135.07 352.03 140.96 332.48 150.84 330.22Z" fill="#FCE3AF"/>
<path d="M569.122 467.68C591.202 465.22 584.132 496.16 564.692 491.33C552.472 488.29 558.262 468.89 569.122 467.68Z" fill="#FCE3AF"/>
<path d="M88.7616 300.66C100.972 296.7 103.402 316.82 93.1916 316.92C87.2216 316.98 80.7516 303.26 88.7616 300.66Z" fill="#F9DEBC"/>
<path d="M137.032 246.008C156.802 276.638 207.162 264.008 210.932 228.268C211.712 220.908 210.472 214.448 207.972 207.578C217.282 211.538 220.742 233.218 219.792 242.308C217.062 268.568 190.662 284.718 165.842 282.958C150.482 281.868 150.472 275.998 149.582 275.568C135.142 268.578 123.072 260.528 119.282 242.308C114.042 217.118 131.612 194.578 132.582 203.878C121.872 211.268 127.892 247.638 137.012 245.998L137.032 246.008Z" fill="#F3B25D"/>
<path d="M207.973 207.578C210.473 214.448 211.703 220.918 210.933 228.268C207.043 224.478 201.133 242.148 192.453 247.478C174.543 258.488 152.823 253.168 139.983 237.868C133.373 229.998 132.963 219.078 134.073 208.308L139.983 214.958C156.033 258.578 221.743 234.268 200.583 197.218C204.203 198.828 206.703 204.078 207.973 207.568V207.578Z" fill="#6A2714"/>
<path d="M139.982 214.968L134.072 208.318C132.962 219.088 133.372 230.008 139.982 237.878C152.822 253.178 174.542 258.498 192.452 247.488C201.132 242.148 207.042 224.488 210.932 228.278C207.162 264.008 156.802 276.648 137.032 246.018C127.732 231.608 128.202 217.678 135.552 203.158C140.332 202.078 137.272 208.028 139.982 214.978V214.968Z" fill="#6A2714"/>
<path d="M200.581 197.238C221.741 234.288 156.031 258.588 139.981 214.978C137.271 208.028 140.321 202.078 135.551 203.158C148.731 177.128 187.171 173.768 200.581 197.248V197.238Z" fill="#8C4533"/>
<path d="M159.941 188.368C176.731 184.488 186.581 196.698 189.501 189.848C213.051 228.268 143.411 223.008 148.851 197.978C149.441 195.258 157.741 188.878 159.941 188.368Z" fill="#AE6E60"/>
<path d="M558.041 529.76C566.731 621.38 448.661 582.82 484.141 522.37C491.841 509.25 502.561 508.46 504.831 507.59C490.791 515.78 478.221 525.43 487.091 543.06C473.271 532.57 485.511 563.37 496.701 569.66C526.531 586.43 571.961 551.97 545.471 517.93L544.731 520.89C542.871 515.16 532.581 508.17 526.991 506.11C543.321 507.88 550.121 516.65 558.031 529.76H558.041Z" fill="#6A2714"/>
<path d="M487.092 543.06C501.142 570.97 555.672 554.49 544.732 520.89L545.472 517.93C571.962 551.97 526.522 586.43 496.702 569.66C485.512 563.37 473.272 532.57 487.092 543.06Z" fill="#6A2714"/>
<path d="M509.262 506.11C515.072 506.56 521.232 505.49 527.002 506.11C532.582 508.17 542.872 515.16 544.742 520.89C555.672 554.49 501.152 570.97 487.102 543.06C478.232 525.43 490.802 515.78 504.842 507.59C506.652 506.9 507.222 506.62 509.272 506.11H509.262Z" fill="#8C4533"/>
<path d="M527.002 506.11C521.232 505.49 515.072 506.56 509.262 506.11C514.542 504.82 511.492 500.38 527.002 506.11Z" fill="#6A2714"/>
<path d="M508.52 510.54C540.1 504.85 537.22 542.19 505.56 535.67C488.72 532.2 493.2 513.3 508.52 510.54Z" fill="#AE6E60"/>
<path d="M296.92 235.62C261.44 296.07 379.51 334.63 370.82 243.01C406.36 301.89 324.92 348.71 291.01 299.91C287.23 294.47 280.62 275.38 280.66 268.87C280.69 263.74 288.21 232.65 296.92 235.61V235.62Z" fill="#E69F53"/>
<path d="M370.822 243.01C379.512 334.63 261.443 296.07 296.923 235.62C304.623 222.5 315.342 221.71 317.612 220.84C303.572 229.03 291.003 238.68 299.873 256.31C286.053 245.82 298.293 276.62 309.483 282.91C339.313 299.68 384.742 265.22 358.252 231.18L357.512 234.14C355.652 228.41 345.362 221.42 339.772 219.36C356.102 221.13 362.903 229.9 370.813 243.01H370.822Z" fill="#6A2714"/>
<path d="M299.873 256.31C313.923 284.22 368.453 267.74 357.513 234.14L358.253 231.18C384.743 265.22 339.303 299.68 309.483 282.91C298.293 276.62 286.053 245.82 299.873 256.31Z" fill="#6A2714"/>
<path d="M322.043 219.36C327.853 219.81 334.013 218.74 339.783 219.36C345.363 221.42 355.653 228.41 357.523 234.14C368.453 267.74 313.933 284.22 299.883 256.31C291.013 238.68 303.583 229.03 317.623 220.84C319.433 220.15 320.003 219.87 322.053 219.36H322.043Z" fill="#8C4533"/>
<path d="M321.301 223.79C352.881 218.1 350.001 255.44 318.341 248.92C301.501 245.45 305.981 226.55 321.301 223.79Z" fill="#AE6E60"/>
<path d="M434.371 329.445C491.212 385.629 386.488 465.154 347.606 395.552C337.334 377.173 338.382 373.176 343.469 354.238C341.904 372.184 343.791 369.976 353.798 381.087C329.829 372.477 363.889 404.427 367.229 405.881C368.557 406.454 391.24 408.69 396.146 407.949C436.509 401.856 456.356 341.282 415.769 327.39C410.891 321.464 406.265 317.732 398.214 319.13L401.317 314.993C408.697 315.622 429.591 324.721 434.371 329.459V329.445Z" fill="#6A2714"/>
<path d="M353.797 381.101C356.453 382.051 361.204 386.901 363.091 387.292C409.157 396.824 437.906 354.252 415.768 327.39C456.355 341.296 436.509 401.856 396.145 407.949C391.239 408.69 368.556 406.454 367.228 405.881C363.888 404.427 329.828 372.491 353.797 381.087V381.101Z" fill="#6A2714"/>
<path d="M401.32 314.993L398.217 319.13C406.267 317.732 410.893 321.464 415.771 327.39C437.909 354.252 409.16 396.824 363.095 387.292C361.208 386.901 356.456 382.051 353.8 381.101C343.793 369.976 341.907 372.184 343.472 354.252C350.935 326.482 371.872 312.505 401.306 315.007L401.32 314.993Z" fill="#8C4533"/>
<path d="M377.559 323.253C407.301 319.2 408.558 352.142 383.751 360.43C336.161 376.349 350.585 326.929 377.559 323.253Z" fill="#AE6E60"/>
<path d="M225.326 390.884C250.56 436.055 318.524 384.454 281.635 347.982C284.42 339.247 299.613 366.857 300.402 374.122C304.03 407.529 270.089 431.71 239.404 417.696C230.134 413.461 210.46 384.064 225.326 390.884Z" fill="#F3B25D"/>
<path d="M281.635 347.982C318.524 384.444 250.56 436.055 225.326 390.884C218.659 378.957 219.34 376.363 222.641 364.072C221.625 375.719 222.85 374.286 229.344 381.497C213.788 375.909 235.893 396.644 238.061 397.587C238.922 397.959 253.644 399.411 256.827 398.93C283.023 394.975 295.903 355.664 269.562 346.648C266.397 342.802 263.394 340.381 258.17 341.288L260.183 338.603C264.973 339.011 278.533 344.916 281.635 347.991V347.982Z" fill="#6A2714"/>
<path d="M229.345 381.506C231.068 382.122 234.152 385.27 235.377 385.524C265.273 391.71 283.93 364.081 269.563 346.648C295.903 355.673 283.023 394.975 256.828 398.93C253.644 399.411 238.923 397.959 238.061 397.587C235.894 396.644 213.789 375.918 229.345 381.497V381.506Z" fill="#6A2714"/>
<path d="M260.183 338.603L258.169 341.288C263.394 340.381 266.396 342.802 269.562 346.648C283.929 364.081 265.271 391.71 235.375 385.524C234.151 385.27 231.067 382.122 229.344 381.506C222.849 374.286 221.625 375.719 222.641 364.081C227.484 346.059 241.072 336.988 260.174 338.612L260.183 338.603Z" fill="#8C4533"/>
<path d="M244.762 343.963C264.064 341.333 264.88 362.712 248.78 368.091C217.896 378.422 227.256 346.349 244.762 343.963Z" fill="#AE6E60"/>
<path d="M387.639 255.189C395.381 296.135 460.471 274.072 441.605 236.794C445.962 230.833 450.518 255.802 449.265 261.553C443.508 287.997 411.408 297.802 391.547 279.264C385.547 273.661 378.025 246.183 387.639 255.189Z" fill="#F3B25D"/>
<path d="M441.605 236.795C460.474 274.065 395.382 296.136 387.64 255.19C385.593 244.377 386.775 242.569 392.435 234.024C388.685 242.661 389.986 241.879 393.106 249.045C382.65 240.805 394.241 262.287 395.656 263.561C396.219 264.065 407.094 268.932 409.648 269.378C430.667 273.045 450.542 246.306 432.724 232.694C431.288 228.948 429.613 226.332 425.391 225.691L427.614 224.154C431.168 225.688 440.019 233.661 441.603 236.802L441.605 236.795Z" fill="#6A2714"/>
<path d="M393.101 249.051C394.26 249.962 395.812 253.154 396.683 253.661C417.94 266.019 439.245 249.678 432.722 232.694C450.537 246.312 430.665 273.045 409.646 269.378C407.091 268.932 396.217 264.065 395.654 263.561C394.239 262.287 382.646 240.812 393.104 249.044L393.101 249.051Z" fill="#6A2714"/>
<path d="M427.612 224.154L425.388 225.691C429.61 226.332 431.285 228.948 432.722 232.694C439.245 249.679 417.94 266.019 396.683 253.661C395.812 253.154 394.26 249.963 393.101 249.052C389.984 241.878 388.683 242.661 392.43 234.031C400.731 221.501 413.426 218.041 427.602 224.158L427.612 224.154Z" fill="#8C4533"/>
<path d="M414.464 224.311C429.879 227.23 425.044 243.769 411.373 243.767C385.144 243.773 400.483 221.664 414.464 224.311Z" fill="#AE6E60"/>
<path d="M508.457 385.579C515.013 420.253 570.131 401.569 554.155 370.002C557.845 364.954 561.703 386.098 560.642 390.968C555.767 413.361 528.584 421.664 511.766 405.966C506.685 401.222 500.315 377.953 508.457 385.579Z" fill="#F3B25D"/>
<path d="M554.155 370.003C570.133 401.564 515.013 420.253 508.457 385.58C506.723 376.423 507.724 374.892 512.517 367.656C509.342 374.97 510.444 374.308 513.086 380.376C504.232 373.399 514.047 391.59 515.245 392.669C515.722 393.095 524.931 397.217 527.094 397.594C544.893 400.7 561.723 378.057 546.635 366.53C545.418 363.358 544 361.142 540.424 360.599L542.307 359.298C545.317 360.598 552.812 367.349 554.153 370.008L554.155 370.003Z" fill="#6A2714"/>
<path d="M513.082 380.381C514.063 381.153 515.377 383.856 516.115 384.285C534.115 394.75 552.157 380.912 546.633 366.53C561.719 378.062 544.891 400.699 527.092 397.594C524.929 397.217 515.72 393.095 515.243 392.668C514.045 391.589 504.228 373.404 513.084 380.376L513.082 380.381Z" fill="#6A2714"/>
<path d="M542.306 359.298L540.423 360.599C543.998 361.142 545.417 363.358 546.633 366.53C552.157 380.913 534.115 394.75 516.115 384.285C515.378 383.856 514.063 381.153 513.082 380.382C510.442 374.307 509.34 374.97 512.513 367.662C519.543 357.051 530.293 354.122 542.298 359.302L542.306 359.298Z" fill="#8C4533"/>
<path d="M531.171 359.431C544.225 361.903 540.131 375.908 528.554 375.906C506.343 375.912 519.332 357.19 531.171 359.431Z" fill="#AE6E60"/>
<path d="M207.015 582.922C213.572 617.595 268.69 598.911 252.714 567.345C256.403 562.297 260.261 583.441 259.201 588.311C254.325 610.704 227.143 619.007 210.324 603.308C205.244 598.564 198.874 575.295 207.015 582.922Z" fill="#F3B25D"/>
<path d="M252.714 567.345C268.692 598.906 213.572 617.596 207.016 582.922C205.282 573.766 206.283 572.235 211.076 564.999C207.901 572.312 209.003 571.65 211.644 577.718C202.79 570.741 212.605 588.932 213.804 590.011C214.281 590.438 223.489 594.56 225.652 594.937C243.451 598.042 260.282 575.399 245.193 563.872C243.977 560.7 242.559 558.485 238.983 557.942L240.866 556.641C243.876 557.94 251.37 564.691 252.712 567.351L252.714 567.345Z" fill="#6A2714"/>
<path d="M211.64 577.724C212.622 578.495 213.936 581.198 214.673 581.627C232.674 592.092 250.715 578.255 245.191 563.872C260.278 575.405 243.449 598.042 225.65 594.936C223.487 594.559 214.279 590.438 213.802 590.011C212.603 588.932 202.786 570.747 211.642 577.718L211.64 577.724Z" fill="#6A2714"/>
<path d="M240.864 556.641L238.981 557.942C242.557 558.485 243.975 560.7 245.191 563.872C250.716 578.255 232.674 592.092 214.673 581.627C213.936 581.198 212.622 578.496 211.641 577.724C209.001 571.65 207.899 572.312 211.072 565.004C218.102 554.394 228.851 551.464 240.856 556.645L240.864 556.641Z" fill="#8C4533"/>
<path d="M229.73 556.774C242.784 559.246 238.69 573.251 227.113 573.249C204.902 573.254 217.891 554.532 229.73 556.774Z" fill="#AE6E60"/>
<path d="M487.629 152.224C494.185 186.898 549.303 168.214 533.327 136.647C537.017 131.599 540.875 152.743 539.814 157.613C534.939 180.006 507.756 188.31 490.938 172.611C485.857 167.867 479.487 144.598 487.629 152.224Z" fill="#F3B25D"/>
<path d="M533.327 136.648C549.305 168.209 494.185 186.898 487.629 152.225C485.895 143.068 486.896 141.537 491.689 134.301C488.514 141.615 489.616 140.953 492.258 147.021C483.404 140.044 493.219 158.235 494.417 159.314C494.894 159.741 504.102 163.862 506.266 164.24C524.065 167.345 540.895 144.702 525.806 133.175C524.59 130.003 523.172 127.788 519.596 127.245L521.479 125.943C524.489 127.243 531.984 133.994 533.325 136.654L533.327 136.648Z" fill="#6A2714"/>
<path d="M492.254 147.027C493.235 147.798 494.549 150.501 495.286 150.93C513.287 161.395 531.329 147.558 525.804 133.175C540.891 144.707 524.063 167.345 506.264 164.239C504.1 163.862 494.892 159.74 494.415 159.314C493.217 158.235 483.4 140.049 492.256 147.021L492.254 147.027Z" fill="#6A2714"/>
<path d="M521.478 125.943L519.595 127.245C523.17 127.788 524.589 130.003 525.805 133.175C531.329 147.558 513.287 161.395 495.287 150.93C494.55 150.501 493.235 147.799 492.254 147.027C489.614 140.953 488.512 141.615 491.685 134.307C498.715 123.697 509.465 120.767 521.47 125.947L521.478 125.943Z" fill="#8C4533"/>
<path d="M510.343 126.077C523.397 128.548 519.303 142.553 507.726 142.552C485.515 142.557 498.504 123.835 510.343 126.077Z" fill="#AE6E60"/>
<path d="M211.866 132.261C220.232 176.504 290.562 152.664 270.177 112.385C274.885 105.944 279.807 132.923 278.454 139.137C272.233 167.71 237.548 178.305 216.088 158.274C209.606 152.22 201.478 122.53 211.866 132.261Z" fill="#F3B25D"/>
<path d="M270.175 112.385C290.563 152.657 220.23 176.505 211.864 132.262C209.652 120.578 210.93 118.624 217.045 109.391C212.994 118.724 214.4 117.878 217.771 125.622C206.473 116.719 218.997 139.93 220.526 141.307C221.135 141.852 232.885 147.111 235.645 147.592C258.356 151.555 279.832 122.662 260.579 107.954C259.027 103.907 257.217 101.08 252.655 100.387L255.057 98.7267C258.897 100.385 268.46 108.999 270.173 112.393L270.175 112.385Z" fill="#6A2714"/>
<path d="M217.767 125.629C219.019 126.613 220.696 130.062 221.636 130.609C244.605 143.962 267.626 126.306 260.577 107.954C279.827 122.669 258.355 151.554 235.643 147.592C232.883 147.11 221.133 141.851 220.524 141.307C218.995 139.93 206.469 116.726 217.769 125.621L217.767 125.629Z" fill="#6A2714"/>
<path d="M255.054 98.7266L252.651 100.387C257.213 101.08 259.023 103.907 260.575 107.954C267.624 126.307 244.603 143.963 221.635 130.61C220.694 130.062 219.017 126.614 217.765 125.629C214.396 117.878 212.99 118.723 217.039 109.399C226.009 95.8597 239.725 92.1218 255.044 98.7316L255.054 98.7266Z" fill="#8C4533"/>
<path d="M240.849 98.8967C257.506 102.05 252.282 119.921 237.51 119.919C209.169 119.925 225.743 96.0362 240.849 98.8967Z" fill="#AE6E60"/>
<path d="M431.459 460.84C418.642 486.293 463.16 501.37 468.411 473.284C473.255 471.858 465.35 487.311 462.279 489.914C448.16 501.88 426.652 493.861 423.573 475.538C422.644 470.001 429.982 451.953 431.459 460.84Z" fill="#F3B25D"/>
<path d="M468.409 473.285C463.162 501.367 418.64 486.294 431.457 460.84C434.84 454.117 436.234 453.627 442.859 451.34C437.233 454.471 438.265 454.587 436.98 459.776C434.727 450.955 432.091 467.439 432.33 468.719C432.426 469.226 436.308 476.39 437.51 477.694C447.4 488.423 469.308 482.165 465.291 467.366C466.068 464.735 466.246 462.617 464.22 460.514L466.066 460.604C467.358 462.915 468.85 470.923 468.405 473.287L468.409 473.285Z" fill="#6A2714"/>
<path d="M436.975 459.777C437.226 460.754 436.742 463.132 437.004 463.769C443.41 479.316 461.772 479.3 465.29 467.365C469.303 482.166 447.399 488.422 437.51 477.693C436.308 476.389 432.426 469.225 432.329 468.717C432.091 467.437 434.722 450.956 436.979 459.774L436.975 459.777Z" fill="#6A2714"/>
<path d="M466.066 460.603L464.22 460.513C466.246 462.617 466.068 464.734 465.291 467.365C461.773 479.3 443.41 479.317 437.004 463.769C436.742 463.132 437.226 460.754 436.976 459.778C438.265 454.586 437.233 454.47 442.855 451.342C452.572 447.988 460.904 451.387 466.059 460.602L466.066 460.603Z" fill="#8C4533"/>
<path d="M458.861 455.223C466.019 463.216 456.518 470.187 449.095 464.503C434.849 453.603 452.369 447.973 458.861 455.223Z" fill="#AE6E60"/>
<path d="M419.136 694.935C446.956 744.735 521.886 687.845 481.216 647.635C484.286 638.005 501.036 668.445 501.906 676.455C505.906 713.285 468.486 739.945 434.656 724.495C424.436 719.825 402.746 687.415 419.136 694.935Z" fill="#F3B25D"/>
<path d="M426.231 604.433C466.901 644.633 391.971 701.533 364.151 651.733C356.801 638.583 357.551 635.723 361.191 622.173C360.071 635.013 361.421 633.433 368.581 641.383C351.431 635.223 375.801 658.083 378.191 659.123C379.141 659.533 395.371 661.133 398.881 660.603C427.761 656.243 441.961 612.903 412.921 602.963C409.431 598.723 406.121 596.053 400.361 597.053L402.581 594.093C407.861 594.543 422.811 601.053 426.231 604.443V604.433Z" fill="#6A2714"/>
<path d="M368.581 641.393C370.481 642.073 373.881 645.543 375.231 645.823C408.191 652.643 428.761 622.183 412.921 602.963C441.961 612.913 427.761 656.243 398.881 660.603C395.371 661.133 379.141 659.533 378.191 659.123C375.801 658.083 351.431 635.233 368.581 641.383V641.393Z" fill="#6A2714"/>
<path d="M402.583 594.093L400.363 597.053C406.123 596.053 409.433 598.723 412.923 602.963C428.763 622.183 408.193 652.643 375.233 645.823C373.883 645.543 370.483 642.073 368.583 641.393C361.423 633.433 360.073 635.013 361.193 622.183C366.533 602.313 381.513 592.313 402.573 594.103L402.583 594.093Z" fill="#8C4533"/>
<path d="M385.582 600.003C406.862 597.103 407.762 620.673 390.012 626.603C355.962 637.993 366.282 602.633 385.582 600.003Z" fill="#AE6E60"/>
<path d="M135.424 407.051C110.894 421.021 132.704 451.251 155.374 449.911C173.804 448.821 190.864 421.221 163.504 407.051C174.304 407.251 184.464 423.931 185.674 433.651C185.734 434.131 185.644 434.641 185.674 435.131C179.624 441.641 179.064 453.181 171.634 458.781C146.174 477.951 108.884 456.581 116.204 421.831C120.054 414.901 126.744 406.631 135.414 407.051H135.424Z" fill="#6A2714"/>
<path d="M185.676 435.131C188.466 475.861 138.666 493.031 117.686 461.731C108.326 447.771 108.276 436.111 116.206 421.821C108.886 456.571 146.166 477.941 171.636 458.771C179.076 453.171 179.636 441.631 185.676 435.121V435.131Z" fill="#6A2714"/>
<path d="M163.504 407.051C190.864 421.231 173.804 448.831 155.374 449.911C132.694 451.251 110.894 421.021 135.424 407.051C147.584 400.121 151.844 401.011 163.504 407.051Z" fill="#8C4533"/>
<path d="M145.032 405.571C163.982 401.371 175.752 424.861 162.772 429.221C144.832 435.241 125.882 409.811 145.032 405.571Z" fill="#AE6E60"/>
<path d="M599.42 225.28C611.65 257.3 589.93 280.88 558.04 281.45C515.42 275.62 508.08 209.03 552.13 204.59V206.07C551.54 206.11 550.58 206.92 547.7 207.55C523.04 212.9 528.53 234.06 528.49 240.07C528.44 247.36 529.82 248.05 529.97 248.94C530.01 249.17 526.06 247.52 527.01 252.64C537.72 272.62 562.03 277.76 580.96 265.2C598.38 253.65 598.85 217.14 586.13 217.9C581.73 204.75 564.09 203.39 552.14 204.6C566.76 195.11 593.53 209.85 599.44 225.29L599.42 225.28Z" fill="#6A2714"/>
<path d="M547.689 207.55C523.559 224.46 539.159 240.52 555.819 234.15C566.719 229.99 574.569 214.26 559.519 207.55C608.239 214.6 553.819 272.39 528.479 240.07C528.519 234.06 523.029 212.9 547.689 207.55Z" fill="#AE6E60"/>
<path d="M529.961 248.93C550.041 276.25 596.851 249.94 586.131 217.89C598.851 217.13 598.381 253.64 580.961 265.19C562.031 277.74 537.721 272.61 527.011 252.63C526.061 247.52 530.011 249.17 529.971 248.93H529.961Z" fill="#6A2714"/>
<path d="M586.12 217.89C596.84 249.93 550.03 276.24 529.95 248.93C529.8 248.04 528.42 247.35 528.47 240.06C553.81 272.38 608.23 214.59 559.51 207.54C557.69 207.28 552.5 206.03 552.12 206.06V204.58C564.07 203.38 581.71 204.73 586.11 217.88L586.12 217.89Z" fill="#8C4533"/>
<path d="M559.522 207.55C574.572 214.26 566.732 229.99 555.822 234.15C539.162 240.51 523.562 224.46 547.692 207.55C550.572 206.92 551.542 206.11 552.122 206.07C552.502 206.04 557.692 207.28 559.512 207.55H559.522Z" fill="#AE6E60"/>
<path d="M670.736 396.023C673.796 429.443 629.076 446.733 610.136 418.193C601.666 405.433 603.406 400.973 607.176 388.633C600.366 427.903 665.646 414.733 654.476 380.503C653.906 378.743 647.216 370.383 645.606 369.413C658.796 371.163 669.496 382.463 670.736 396.013V396.023Z" fill="#6A2714"/>
<path d="M629.348 367.943C630.178 371.133 638.698 368.503 645.608 369.423C647.208 370.383 653.898 378.753 654.478 380.513C665.648 414.743 600.378 427.913 607.178 388.643C610.958 376.283 615.008 371.053 629.348 367.953V367.943Z" fill="#8C4533"/>
<path d="M625.658 373.853C651.998 369.223 643.858 401.223 621.228 398.983C604.138 397.293 614.088 375.893 625.658 373.853Z" fill="#AE6E60"/>
<path d="M346.68 482.565C360.79 520.005 314.58 546.105 290.51 518.035C275.47 500.495 279.75 471.795 302.33 466.305C286 475.095 285.6 482.205 286.07 495.865C286.74 515.365 306.6 526.095 325.24 518.035C339.43 511.895 353.56 488.565 333.37 472.215C320.8 462.035 317.83 466.455 315.63 461.865C328.72 462.155 342.05 470.305 346.67 482.555L346.68 482.565Z" fill="#6A2714"/>
<path d="M286.082 495.865C304.292 520.855 343.432 502.555 333.382 472.215C353.572 488.565 339.442 511.895 325.252 518.035C306.622 526.095 286.752 515.365 286.082 495.865Z" fill="#6A2714"/>
<path d="M315.639 461.865C317.829 466.445 320.799 462.025 333.379 472.215C343.429 502.545 304.289 520.855 286.079 495.865C285.609 482.205 286.009 475.095 302.339 466.305C302.959 465.975 303.419 461.605 315.639 461.875V461.865Z" fill="#8C4533"/>
<path d="M307.51 467.785C334.34 464.345 324.6 498.435 298.64 491.435C284.2 487.545 295.99 469.265 307.51 467.785Z" fill="#AE6E60"/>
<path d="M401.371 120.34C422.421 144.5 381.721 167.86 368.851 143.99C368.481 143.31 369.701 140.92 367.371 141.03C372.191 126.27 386.331 119 401.361 120.34H401.371Z" fill="#AE6E60"/>
<path d="M417.633 126.25C433.763 141.21 435.223 158.27 423.543 176.5C395.943 201.89 355.963 176 367.373 141.03C369.703 140.91 368.483 143.31 368.853 143.99C365.593 150.35 369.223 157.75 374.763 161.73C362.053 164.54 391.153 184.75 410.973 173.55C430.033 162.79 420.463 145.34 426.493 143.25L416.143 132.16C414.493 127.46 411.223 126.78 408.753 123.29C412.173 124.03 414.333 125.83 417.623 126.25H417.633Z" fill="#6A2714"/>
<path d="M408.762 123.3C411.232 126.79 414.502 127.47 416.152 132.17C424.032 154.56 394.052 175.59 374.772 161.73C369.232 157.75 365.602 150.35 368.862 143.99C381.732 167.86 422.422 144.51 401.382 120.34C402.782 120.46 408.382 123.21 408.772 123.3H408.762Z" fill="#8C4533"/>
<path d="M374.764 161.73C394.054 175.59 424.024 154.56 416.144 132.17L426.494 143.26C420.464 145.35 430.034 162.8 410.974 173.56C391.154 184.75 362.054 164.55 374.764 161.74V161.73Z" fill="#6A2714"/>
<path d="M267.61 290.32C285.05 287.32 282.86 316.64 264.65 311.01C254.63 307.91 260.08 291.61 267.61 290.32Z" fill="#FCE3AF"/>
<path d="M267.609 294.75C275.499 292.82 278.219 308.02 269.089 308.05C262.439 308.08 262.409 296.02 267.609 294.75Z" fill="#FBEDD7"/>
</g>
<defs>
<linearGradient id="paint0_linear_179_465" x1="273.549" y1="67.4312" x2="493.832" y2="664.478" gradientUnits="userSpaceOnUse">
<stop stop-color="#FBD791"/>
<stop offset="1" stop-color="#F2B060"/>
</linearGradient>
<clipPath id="clip0_179_465">
<rect width="778.4" height="803.26" fill="white"/>
</clipPath>
</defs>
</svg>
