<svg width="779" height="804" viewBox="0 0 779 804" fill="none" xmlns="http://www.w3.org/2000/svg">
<g clip-path="url(#clip0_179_87)">
<path d="M581.692 752.94C457.202 820.04 321.852 820.03 197.402 752.94C86.9519 693.39 10.1019 576.7 0.821898 450.68C-2.2681 408.69 3.9419 376.33 9.6919 336.13C2.6019 418.61 15.8419 501.31 56.9919 573.35C98.4019 645.84 169.462 697.42 245.442 729.28C350.162 773.19 441.842 772.99 545.482 726.32C707.952 653.17 787.292 502.62 766.452 325.77C809.902 491.74 731.972 671.92 581.702 752.92L581.692 752.94Z" fill="#DB8337"/>
<path d="M766.441 325.79C787.281 502.63 707.951 653.19 545.471 726.34C441.831 773 350.161 773.21 245.431 729.3C169.451 697.44 98.3912 645.86 56.9812 573.37C15.8412 501.31 2.60116 418.61 9.69116 336.13C13.6512 308.45 17.9112 306.19 12.6512 264.45C20.0612 247.92 41.1312 240.8 49.6012 226.02C57.6712 211.95 57.8312 191.56 62.9012 177.25C88.3312 105.45 166.551 84.95 221.791 44.97L252.831 31.67C286.891 29.3 321.691 2.88999 340.031 0.629993C377.671 -4.00001 415.561 18.84 437.581 16.89C467.011 2.67999 506.151 11.81 535.131 24.28C583.281 45 583.631 75.38 594.251 77.49C664.941 64.61 654.111 95.87 667.411 121.09C687.691 159.53 774.831 218.13 766.441 325.8V325.79Z" fill="#F3B25D"/>
<path d="M45.1602 466.2C49.8202 462.94 57.5402 489.69 61.4202 497.98C80.4902 538.74 133.26 630.51 181.88 631.74L246.91 680.51C399.66 749.87 583.83 711.72 668.89 560.05C694.91 513.66 721.17 429.5 725.06 376.77C727.63 341.93 721.79 307.21 722.1 272.57C760.86 387.21 742.88 499.71 665.93 594.04C570.62 710.88 414.77 758.8 270.56 710.07C214 690.95 164.35 649.93 122.02 608.83C106.3 583.04 85.7902 560.45 71.7702 533.45C63.5102 517.55 58.6702 500.87 52.5602 484.68C51.9902 483.17 48.6702 484.71 48.1302 483.2C47.4402 481.29 45.5202 467.47 45.1702 466.2H45.1602Z" fill="#F3B25D"/>
<path d="M388.073 37.57C400.153 39.29 418.213 46.51 423.543 58.26C424.053 59.39 426.193 66.89 425.763 67.13C361.783 58.02 300.083 137.63 248.403 126.25C244.283 125.34 236.163 118.34 235.843 113.69C234.503 94.71 284.323 85.64 297.183 78.96C318.413 67.93 328.523 48.78 355.563 40.53C369.613 36.25 373.303 35.47 388.083 37.57H388.073Z" fill="#FCE3AF"/>
<path d="M711.75 247.45L710.27 251.15C680.08 176.66 592.71 118.71 580.2 103.35C579.5 102.5 568.07 84.81 571.33 84.87C628.16 119.55 677.41 172.12 707.31 231.93C707.67 232.65 710.44 244.43 711.74 247.45H711.75Z" fill="#F8CB81"/>
<path d="M558.042 77.48C514.872 64.19 469.232 53.39 423.542 58.27C418.212 46.51 400.152 39.3 388.072 37.58L381.422 33.15C425.342 32.74 470.172 40.78 511.492 55.32C511.992 55.5 515.432 59.29 520.362 61.23C523.972 62.65 530.232 61.03 530.712 61.23C535.402 63.21 549.132 72.57 558.052 77.49L558.042 77.48Z" fill="#F8CB81"/>
<path d="M355.552 40.53C328.512 48.78 318.402 67.92 297.172 78.96C284.312 85.64 234.502 94.71 235.832 113.69C236.162 118.34 244.272 125.35 248.392 126.25C300.072 137.63 361.772 58.02 425.752 67.13C426.182 66.89 424.052 59.39 423.532 58.26C469.222 53.39 514.862 64.19 558.032 77.47C562.462 79.91 567.012 82.23 571.332 84.86C568.072 84.8 579.502 102.48 580.202 103.34C592.702 118.7 680.082 176.66 710.272 251.14L711.752 247.44C711.832 247.63 714.142 246.84 714.712 248.18C717.712 255.27 719.522 264.95 722.102 272.57C721.792 307.21 727.622 341.93 725.062 376.77C721.172 429.5 694.912 513.66 668.892 560.05C583.832 711.71 399.662 749.87 246.912 680.51L181.882 631.74C133.262 630.51 80.4917 538.74 61.4217 497.98C57.5417 489.69 49.8317 462.94 45.1617 466.2C20.8317 375.8 47.9317 254.02 102.802 178.72C141.202 126.03 200.612 78.49 261.692 55.3C284.942 46.47 335.272 33.04 359.242 33.13C375.872 33.19 356.412 35.56 355.542 40.52L355.552 40.53Z" fill="url(#paint0_linear_179_87)"/>
<path d="M543.26 522.683C507.78 583.133 625.85 621.693 617.16 530.073C652.7 588.953 571.26 635.773 537.35 586.973C533.57 581.533 526.96 562.443 527 555.933C527.03 550.803 534.55 519.713 543.26 522.673V522.683Z" fill="#E69F53"/>
<path d="M447.104 369.565C474.924 419.365 549.854 362.475 509.184 322.265C512.254 312.635 529.004 343.075 529.874 351.085C533.874 387.915 496.454 414.575 462.624 399.125C452.404 394.455 430.714 362.045 447.104 369.565Z" fill="#F3B25D"/>
<path d="M203.582 506.096C224.562 537.386 274.362 520.226 271.572 479.496C271.542 479.006 271.632 478.496 271.572 478.016C278.112 462.786 288.502 498.176 271.572 520.136C246.982 552.036 187.392 535.866 191.022 489.836C193.622 488.066 197.652 508.086 203.582 506.096Z" fill="#F3B25D"/>
<path d="M90.2409 381.95C125.191 373.22 116.731 427.11 87.2809 411.51C71.5509 403.17 79.3809 384.66 90.2409 381.95Z" fill="#FCE3AF"/>
<path d="M195.181 553.4C223.441 546.05 226.941 605.36 196.661 587.39C183.681 579.69 185.351 555.95 195.181 553.4Z" fill="#FCE3AF"/>
<path d="M341.509 240.06C368.539 236.61 368.099 271.27 351.859 274.05C332.159 277.43 319.999 242.8 341.509 240.06Z" fill="#FCE3AF"/>
<path d="M542.521 117.39C560.061 115.37 560.841 148.12 546.951 154.34C525.571 163.91 522.631 119.68 542.521 117.39Z" fill="#FCE3AF"/>
<path d="M659.281 245.97C686.101 242.26 676.481 282.51 653.371 275.53C640.991 271.79 645.071 247.94 659.281 245.97Z" fill="#F9DEBC"/>
<path d="M384.371 548.97C404.371 541.75 415.671 577.01 397.671 580.01C380.321 582.9 372.941 553.09 384.371 548.97Z" fill="#FCE3AF"/>
<path d="M481.92 89.3C508.09 83.1 502.3 125.84 478.96 115.9C467.77 111.14 471.66 91.72 481.92 89.3Z" fill="#FCE3AF"/>
<path d="M422.8 633.22C448.87 627.04 443.47 665.07 421.32 659.82C409.26 656.96 411.38 635.92 422.8 633.22Z" fill="#F9DEBC"/>
<path d="M150.84 330.22C176.49 324.36 174.39 361.16 149.36 355.35C135.07 352.03 140.96 332.48 150.84 330.22Z" fill="#FCE3AF"/>
<path d="M569.122 467.68C591.202 465.22 584.132 496.16 564.692 491.33C552.472 488.29 558.262 468.89 569.122 467.68Z" fill="#FCE3AF"/>
<path d="M88.7616 300.66C100.972 296.7 103.402 316.82 93.1916 316.92C87.2216 316.98 80.7516 303.26 88.7616 300.66Z" fill="#F9DEBC"/>
<path d="M215.067 253.023C234.837 283.653 285.198 271.023 288.967 235.283C289.747 227.923 288.507 221.463 286.007 214.593C295.317 218.553 298.777 240.233 297.827 249.323C295.097 275.583 268.697 291.733 243.877 289.973C228.517 288.883 228.507 283.013 227.617 282.583C213.177 275.593 201.107 267.543 197.317 249.323C192.077 224.133 209.647 201.593 210.617 210.893C199.907 218.283 205.927 254.653 215.047 253.013L215.067 253.023Z" fill="#F3B25D"/>
<path d="M286.008 214.593C288.508 221.463 289.738 227.933 288.968 235.283C285.078 231.493 279.168 249.163 270.488 254.493C252.578 265.503 230.858 260.183 218.018 244.883C211.408 237.013 210.998 226.093 212.108 215.323L218.018 221.973C234.068 265.593 299.778 241.283 278.618 204.233C282.238 205.843 284.738 211.093 286.008 214.583V214.593Z" fill="#6A2714"/>
<path d="M218.018 221.983L212.108 215.333C210.998 226.103 211.408 237.023 218.018 244.893C230.858 260.193 252.578 265.513 270.488 254.503C279.168 249.163 285.078 231.503 288.968 235.293C285.198 271.023 234.838 283.663 215.068 253.033C205.768 238.623 206.238 224.693 213.588 210.173C218.368 209.093 215.308 215.043 218.018 221.993V221.983Z" fill="#6A2714"/>
<path d="M278.616 204.253C299.776 241.303 234.066 265.603 218.016 221.993C215.306 215.043 218.356 209.093 213.586 210.173C226.766 184.143 265.206 180.783 278.616 204.263V204.253Z" fill="#8C4533"/>
<path d="M237.976 195.383C254.766 191.503 264.616 203.713 267.536 196.863C291.086 235.283 221.446 230.023 226.886 204.993C227.476 202.273 235.776 195.893 237.976 195.383Z" fill="#AE6E60"/>
<path d="M617.166 530.073C625.856 621.693 507.786 583.133 543.266 522.683C550.966 509.563 561.686 508.773 563.956 507.903C549.916 516.093 537.346 525.743 546.216 543.373C532.396 532.883 544.636 563.683 555.826 569.973C585.656 586.743 631.086 552.283 604.596 518.243L603.856 521.203C601.996 515.473 591.706 508.483 586.116 506.423C602.446 508.193 609.246 516.963 617.156 530.073H617.166Z" fill="#6A2714"/>
<path d="M546.217 543.373C560.267 571.283 614.797 554.803 603.857 521.203L604.597 518.243C631.087 552.283 585.647 586.743 555.827 569.973C544.637 563.683 532.397 532.883 546.217 543.373Z" fill="#6A2714"/>
<path d="M568.387 506.423C574.197 506.873 580.357 505.803 586.127 506.423C591.707 508.483 601.997 515.473 603.867 521.203C614.797 554.803 560.277 571.283 546.227 543.373C537.357 525.743 549.927 516.093 563.967 507.903C565.777 507.213 566.347 506.933 568.397 506.423H568.387Z" fill="#8C4533"/>
<path d="M567.645 510.853C599.225 505.163 596.345 542.503 564.685 535.983C547.845 532.513 552.325 513.613 567.645 510.853Z" fill="#AE6E60"/>
<path d="M509.181 322.265C549.851 362.465 474.921 419.365 447.101 369.565C439.751 356.415 440.501 353.555 444.141 340.005C443.021 352.845 444.371 351.265 451.531 359.215C434.381 353.055 458.751 375.915 461.141 376.955C462.091 377.365 478.321 378.965 481.831 378.435C510.711 374.075 524.911 330.735 495.871 320.795C492.381 316.555 489.071 313.885 483.311 314.885L485.531 311.925C490.811 312.375 505.761 318.885 509.181 322.275V322.265Z" fill="#6A2714"/>
<path d="M451.531 359.225C453.431 359.905 456.83 363.375 458.18 363.655C491.14 370.475 511.71 340.015 495.87 320.795C524.91 330.745 510.711 374.075 481.831 378.435C478.321 378.965 462.091 377.365 461.141 376.955C458.751 375.915 434.381 353.065 451.531 359.215V359.225Z" fill="#6A2714"/>
<path d="M485.532 311.925L483.312 314.885C489.072 313.885 492.382 316.555 495.872 320.795C511.712 340.015 491.142 370.475 458.182 363.655C456.832 363.375 453.432 359.905 451.532 359.225C444.372 351.265 443.022 352.845 444.142 340.015C449.482 320.145 464.462 310.145 485.522 311.935L485.532 311.925Z" fill="#8C4533"/>
<path d="M468.531 317.835C489.811 314.935 490.711 338.505 472.961 344.435C438.911 355.825 449.231 320.465 468.531 317.835Z" fill="#AE6E60"/>
<path d="M221.319 451.416C196.789 465.386 218.599 495.616 241.269 494.276C259.699 493.186 276.759 465.586 249.399 451.416C260.199 451.616 270.359 468.296 271.569 478.016C271.629 478.496 271.539 479.006 271.569 479.496C265.519 486.006 264.959 497.546 257.529 503.146C232.069 522.316 194.779 500.946 202.099 466.196C205.949 459.266 212.639 450.996 221.309 451.416H221.319Z" fill="#6A2714"/>
<path d="M271.57 479.496C274.36 520.226 224.56 537.396 203.58 506.096C194.22 492.136 194.17 480.476 202.1 466.186C194.78 500.936 232.06 522.306 257.53 503.136C264.97 497.536 265.53 485.996 271.57 479.486V479.496Z" fill="#6A2714"/>
<path d="M249.398 451.416C276.758 465.596 259.698 493.196 241.268 494.276C218.588 495.616 196.788 465.386 221.318 451.416C233.478 444.486 237.738 445.376 249.398 451.416Z" fill="#8C4533"/>
<path d="M230.927 449.936C249.877 445.736 261.647 469.226 248.667 473.586C230.727 479.606 211.777 454.176 230.927 449.936Z" fill="#AE6E60"/>
<path d="M267.61 290.32C285.05 287.32 282.86 316.64 264.65 311.01C254.63 307.91 260.08 291.61 267.61 290.32Z" fill="#FCE3AF"/>
<path d="M267.609 294.75C275.499 292.82 278.219 308.02 269.089 308.05C262.439 308.08 262.409 296.02 267.609 294.75Z" fill="#FBEDD7"/>
</g>
<defs>
<linearGradient id="paint0_linear_179_87" x1="273.549" y1="67.4312" x2="493.832" y2="664.478" gradientUnits="userSpaceOnUse">
<stop stop-color="#FBD791"/>
<stop offset="1" stop-color="#F2B060"/>
</linearGradient>
<clipPath id="clip0_179_87">
<rect width="778.4" height="803.26" fill="white"/>
</clipPath>
</defs>
</svg>
