<svg width="779" height="804" viewBox="0 0 779 804" fill="none" xmlns="http://www.w3.org/2000/svg">
<g clip-path="url(#clip0_179_346)">
<path d="M581.692 752.94C457.202 820.04 321.852 820.03 197.402 752.94C86.9519 693.39 10.1019 576.7 0.821898 450.68C-2.2681 408.69 3.9419 376.33 9.6919 336.13C2.6019 418.61 15.8419 501.31 56.9919 573.35C98.4019 645.84 169.462 697.42 245.442 729.28C350.162 773.19 441.842 772.99 545.482 726.32C707.952 653.17 787.292 502.62 766.452 325.77C809.902 491.74 731.972 671.92 581.702 752.92L581.692 752.94Z" fill="#DB8337"/>
<path d="M766.441 325.79C787.281 502.63 707.951 653.19 545.471 726.34C441.831 773 350.161 773.21 245.431 729.3C169.451 697.44 98.3912 645.86 56.9812 573.37C15.8412 501.31 2.60116 418.61 9.69116 336.13C13.6512 308.45 17.9112 306.19 12.6512 264.45C20.0612 247.92 41.1312 240.8 49.6012 226.02C57.6712 211.95 57.8312 191.56 62.9012 177.25C88.3312 105.45 166.551 84.95 221.791 44.97L252.831 31.67C286.891 29.3 321.691 2.88999 340.031 0.629993C377.671 -4.00001 415.561 18.84 437.581 16.89C467.011 2.67999 506.151 11.81 535.131 24.28C583.281 45 583.631 75.38 594.251 77.49C664.941 64.61 654.111 95.87 667.411 121.09C687.691 159.53 774.831 218.13 766.441 325.8V325.79Z" fill="#F3B25D"/>
<path d="M45.1602 466.2C49.8202 462.94 57.5402 489.69 61.4202 497.98C80.4902 538.74 133.26 630.51 181.88 631.74L246.91 680.51C399.66 749.87 583.83 711.72 668.89 560.05C694.91 513.66 721.17 429.5 725.06 376.77C727.63 341.93 721.79 307.21 722.1 272.57C760.86 387.21 742.88 499.71 665.93 594.04C570.62 710.88 414.77 758.8 270.56 710.07C214 690.95 164.35 649.93 122.02 608.83C106.3 583.04 85.7902 560.45 71.7702 533.45C63.5102 517.55 58.6702 500.87 52.5602 484.68C51.9902 483.17 48.6702 484.71 48.1302 483.2C47.4402 481.29 45.5202 467.47 45.1702 466.2H45.1602Z" fill="#F3B25D"/>
<path d="M388.073 37.57C400.153 39.29 418.213 46.51 423.543 58.26C424.053 59.39 426.193 66.89 425.763 67.13C361.783 58.02 300.083 137.63 248.403 126.25C244.283 125.34 236.163 118.34 235.843 113.69C234.503 94.71 284.323 85.64 297.183 78.96C318.413 67.93 328.523 48.78 355.563 40.53C369.613 36.25 373.303 35.47 388.083 37.57H388.073Z" fill="#FCE3AF"/>
<path d="M711.75 247.45L710.27 251.15C680.08 176.66 592.71 118.71 580.2 103.35C579.5 102.5 568.07 84.81 571.33 84.87C628.16 119.55 677.41 172.12 707.31 231.93C707.67 232.65 710.44 244.43 711.74 247.45H711.75Z" fill="#F8CB81"/>
<path d="M558.042 77.48C514.872 64.19 469.232 53.39 423.542 58.27C418.212 46.51 400.152 39.3 388.072 37.58L381.422 33.15C425.342 32.74 470.172 40.78 511.492 55.32C511.992 55.5 515.432 59.29 520.362 61.23C523.972 62.65 530.232 61.03 530.712 61.23C535.402 63.21 549.132 72.57 558.052 77.49L558.042 77.48Z" fill="#F8CB81"/>
<path d="M355.552 40.53C328.512 48.78 318.402 67.92 297.172 78.96C284.312 85.64 234.502 94.71 235.832 113.69C236.162 118.34 244.272 125.35 248.392 126.25C300.072 137.63 361.772 58.02 425.752 67.13C426.182 66.89 424.052 59.39 423.532 58.26C469.222 53.39 514.862 64.19 558.032 77.47C562.462 79.91 567.012 82.23 571.332 84.86C568.072 84.8 579.502 102.48 580.202 103.34C592.702 118.7 680.082 176.66 710.272 251.14L711.752 247.44C711.832 247.63 714.142 246.84 714.712 248.18C717.712 255.27 719.522 264.95 722.102 272.57C721.792 307.21 727.622 341.93 725.062 376.77C721.172 429.5 694.912 513.66 668.892 560.05C583.832 711.71 399.662 749.87 246.912 680.51L181.882 631.74C133.262 630.51 80.4917 538.74 61.4217 497.98C57.5417 489.69 49.8317 462.94 45.1617 466.2C20.8317 375.8 47.9317 254.02 102.802 178.72C141.202 126.03 200.612 78.49 261.692 55.3C284.942 46.47 335.272 33.04 359.242 33.13C375.872 33.19 356.412 35.56 355.542 40.52L355.552 40.53Z" fill="url(#paint0_linear_179_346)"/>
<path d="M484.139 522.37C448.659 582.82 566.729 621.38 558.039 529.76C593.579 588.64 512.139 635.46 478.229 586.66C474.449 581.22 467.839 562.13 467.879 555.62C467.909 550.49 475.429 519.4 484.139 522.36V522.37Z" fill="#E69F53"/>
<path d="M558.042 281.45C589.932 280.89 611.662 257.3 599.422 225.28C607.582 208.79 625.982 268.13 589.812 290.31C547.752 316.1 504.212 271.96 515.172 239.32C518.012 230.87 518.722 252.83 524.042 261.49C532.152 274.69 543.542 281.7 558.032 281.44L558.042 281.45Z" fill="#F3B25D"/>
<path d="M362.94 390.82C390.76 440.62 465.69 383.73 425.02 343.52C428.09 333.89 444.84 364.33 445.71 372.34C449.71 409.17 412.29 435.83 378.46 420.38C368.24 415.71 346.55 383.3 362.94 390.82Z" fill="#F3B25D"/>
<path d="M117.687 461.731C138.667 493.021 188.467 475.861 185.677 435.131C185.647 434.641 185.737 434.131 185.677 433.651C192.217 418.421 202.607 453.811 185.677 475.771C161.087 507.671 101.497 491.501 105.127 445.471C107.727 443.701 111.757 463.721 117.687 461.731Z" fill="#F3B25D"/>
<path d="M610.136 418.193C629.076 446.733 673.797 429.443 670.737 396.023C681.617 380.173 684.907 434.323 653.737 443.323C613.747 454.863 593.816 408.423 610.136 418.193Z" fill="#F3B25D"/>
<path d="M290.521 516.064C314.591 544.134 360.791 518.034 346.691 480.594C357.991 485.304 355.951 509.034 348.171 521.244C330.421 549.094 279.671 543.514 277.961 504.244C285.871 504.134 280.421 516.014 290.521 516.064Z" fill="#E69F53"/>
<path d="M372.794 655.819C396.864 683.889 443.064 657.789 428.964 620.349C440.264 625.059 438.224 648.789 430.444 660.999C412.694 688.849 361.944 683.269 360.234 643.999C368.144 643.889 362.694 655.769 372.794 655.819Z" fill="#E69F53"/>
<path d="M90.2409 381.95C125.191 373.22 116.731 427.11 87.2809 411.51C71.5509 403.17 79.3809 384.66 90.2409 381.95Z" fill="#FCE3AF"/>
<path d="M195.181 553.4C223.441 546.05 226.941 605.36 196.661 587.39C183.681 579.69 185.351 555.95 195.181 553.4Z" fill="#FCE3AF"/>
<path d="M341.509 240.06C368.539 236.61 368.099 271.27 351.859 274.05C332.159 277.43 319.999 242.8 341.509 240.06Z" fill="#FCE3AF"/>
<path d="M542.521 117.39C560.061 115.37 560.841 148.12 546.951 154.34C525.571 163.91 522.631 119.68 542.521 117.39Z" fill="#FCE3AF"/>
<path d="M659.281 245.97C686.101 242.26 676.481 282.51 653.371 275.53C640.991 271.79 645.071 247.94 659.281 245.97Z" fill="#F9DEBC"/>
<path d="M423.542 176.51C435.212 158.28 433.762 141.21 417.632 126.26C413.372 121.07 430.342 133.59 430.932 134.39C461.632 175.79 397.622 219.83 368.852 178.73L371.072 176.51C384.272 192.88 411.612 195.13 423.542 176.51Z" fill="#F3B25D"/>
<path d="M384.371 548.97C404.371 541.75 415.671 577.01 397.671 580.01C380.321 582.9 372.941 553.09 384.371 548.97Z" fill="#FCE3AF"/>
<path d="M481.92 89.3C508.09 83.1 502.3 125.84 478.96 115.9C467.77 111.14 471.66 91.72 481.92 89.3Z" fill="#FCE3AF"/>
<path d="M422.8 633.22C448.87 627.04 443.47 665.07 421.32 659.82C409.26 656.96 411.38 635.92 422.8 633.22Z" fill="#F9DEBC"/>
<path d="M150.84 330.22C176.49 324.36 174.39 361.16 149.36 355.35C135.07 352.03 140.96 332.48 150.84 330.22Z" fill="#FCE3AF"/>
<path d="M569.122 467.68C591.202 465.22 584.132 496.16 564.692 491.33C552.472 488.29 558.262 468.89 569.122 467.68Z" fill="#FCE3AF"/>
<path d="M88.7616 300.66C100.972 296.7 103.402 316.82 93.1916 316.92C87.2216 316.98 80.7516 303.26 88.7616 300.66Z" fill="#F9DEBC"/>
<path d="M191.489 247.45C211.259 278.08 261.619 265.45 265.389 229.71C266.169 222.35 264.929 215.89 262.429 209.02C271.739 212.98 275.199 234.66 274.249 243.75C271.519 270.01 245.119 286.16 220.299 284.4C204.939 283.31 204.929 277.44 204.039 277.01C189.599 270.02 177.529 261.97 173.739 243.75C168.499 218.56 186.069 196.02 187.039 205.32C176.329 212.71 182.349 249.08 191.469 247.44L191.489 247.45Z" fill="#F3B25D"/>
<path d="M262.43 209.02C264.93 215.89 266.16 222.36 265.39 229.71C261.5 225.92 255.59 243.59 246.91 248.92C229 259.93 207.28 254.61 194.44 239.31C187.83 231.44 187.42 220.52 188.53 209.75L194.44 216.4C210.49 260.02 276.2 235.71 255.04 198.66C258.66 200.27 261.16 205.52 262.43 209.01V209.02Z" fill="#6A2714"/>
<path d="M194.44 216.41L188.53 209.76C187.42 220.53 187.83 231.45 194.44 239.32C207.28 254.62 229 259.94 246.91 248.93C255.59 243.59 261.5 225.93 265.39 229.72C261.62 265.45 211.26 278.09 191.49 247.46C182.19 233.05 182.659 219.12 190.009 204.6C194.789 203.52 191.73 209.47 194.44 216.42V216.41Z" fill="#6A2714"/>
<path d="M255.038 198.68C276.198 235.73 210.488 260.03 194.438 216.42C191.728 209.47 194.778 203.52 190.008 204.6C203.188 178.57 241.628 175.21 255.038 198.69V198.68Z" fill="#8C4533"/>
<path d="M214.398 189.81C231.188 185.93 241.038 198.14 243.958 191.29C267.508 229.71 197.868 224.45 203.308 199.42C203.898 196.7 212.198 190.32 214.398 189.81Z" fill="#AE6E60"/>
<path d="M558.041 529.76C566.731 621.38 448.661 582.82 484.141 522.37C491.841 509.25 502.561 508.46 504.831 507.59C490.791 515.78 478.221 525.43 487.091 543.06C473.271 532.57 485.511 563.37 496.701 569.66C526.531 586.43 571.961 551.97 545.471 517.93L544.731 520.89C542.871 515.16 532.581 508.17 526.991 506.11C543.321 507.88 550.121 516.65 558.031 529.76H558.041Z" fill="#6A2714"/>
<path d="M487.092 543.06C501.142 570.97 555.672 554.49 544.732 520.89L545.472 517.93C571.962 551.97 526.522 586.43 496.702 569.66C485.512 563.37 473.272 532.57 487.092 543.06Z" fill="#6A2714"/>
<path d="M509.262 506.11C515.072 506.56 521.232 505.49 527.002 506.11C532.582 508.17 542.872 515.16 544.742 520.89C555.672 554.49 501.152 570.97 487.102 543.06C478.232 525.43 490.802 515.78 504.842 507.59C506.652 506.9 507.222 506.62 509.272 506.11H509.262Z" fill="#8C4533"/>
<path d="M527.002 506.11C521.232 505.49 515.072 506.56 509.262 506.11C514.542 504.82 511.492 500.38 527.002 506.11Z" fill="#6A2714"/>
<path d="M508.52 510.54C540.1 504.85 537.22 542.19 505.56 535.67C488.72 532.2 493.2 513.3 508.52 510.54Z" fill="#AE6E60"/>
<path d="M425.02 343.52C465.69 383.72 390.76 440.62 362.94 390.82C355.59 377.67 356.34 374.81 359.98 361.26C358.86 374.1 360.21 372.52 367.37 380.47C350.22 374.31 374.59 397.17 376.98 398.21C377.93 398.62 394.16 400.22 397.67 399.69C426.55 395.33 440.75 351.99 411.71 342.05C408.22 337.81 404.91 335.14 399.15 336.14L401.37 333.18C406.65 333.63 421.6 340.14 425.02 343.53V343.52Z" fill="#6A2714"/>
<path d="M367.37 380.48C369.27 381.16 372.67 384.63 374.02 384.91C406.98 391.73 427.55 361.27 411.71 342.05C440.75 352 426.55 395.33 397.67 399.69C394.16 400.22 377.93 398.62 376.98 398.21C374.59 397.17 350.22 374.32 367.37 380.47V380.48Z" fill="#6A2714"/>
<path d="M401.372 333.18L399.152 336.14C404.912 335.14 408.222 337.81 411.712 342.05C427.552 361.27 406.982 391.73 374.022 384.91C372.672 384.63 369.272 381.16 367.372 380.48C360.212 372.52 358.862 374.1 359.982 361.27C365.322 341.4 380.302 331.4 401.362 333.19L401.372 333.18Z" fill="#8C4533"/>
<path d="M384.371 339.09C405.651 336.19 406.551 359.76 388.801 365.69C354.751 377.08 365.071 341.72 384.371 339.09Z" fill="#AE6E60"/>
<path d="M244.972 361.964C266.2 399.963 323.374 356.554 292.342 325.872C294.684 318.524 307.465 341.751 308.129 347.863C311.181 375.966 282.628 396.309 256.814 384.52C249.016 380.956 232.466 356.226 244.972 361.964Z" fill="#F3B25D"/>
<path d="M244.972 361.964C266.2 399.963 323.374 356.554 292.342 325.872C294.684 318.524 307.465 341.751 308.129 347.863C311.181 375.966 282.628 396.309 256.814 384.52C249.016 380.956 232.466 356.226 244.972 361.964Z" fill="#F3B25D"/>
<path d="M292.344 325.872C323.377 356.547 266.202 399.963 244.974 361.964C239.366 351.93 239.938 349.748 242.716 339.409C241.861 349.206 242.891 348 248.355 354.067C235.268 349.366 253.864 366.809 255.687 367.603C256.412 367.916 268.796 369.137 271.475 368.732C293.511 365.405 304.346 332.335 282.188 324.751C279.525 321.515 276.999 319.478 272.604 320.241L274.298 317.982C278.327 318.326 289.734 323.293 292.344 325.88V325.872Z" fill="#6A2714"/>
<path d="M248.353 354.074C249.803 354.593 252.397 357.241 253.427 357.455C278.577 362.658 294.273 339.416 282.186 324.751C304.345 332.343 293.51 365.405 271.473 368.732C268.795 369.137 256.411 367.916 255.686 367.603C253.862 366.809 235.267 349.374 248.353 354.067V354.074Z" fill="#6A2714"/>
<path d="M274.298 317.982L272.604 320.241C276.999 319.478 279.524 321.515 282.187 324.751C294.274 339.416 278.578 362.658 253.428 357.455C252.398 357.241 249.804 354.593 248.354 354.074C242.891 348 241.861 349.206 242.715 339.416C246.79 324.255 258.22 316.624 274.29 317.99L274.298 317.982Z" fill="#8C4533"/>
<path d="M261.325 322.492C277.562 320.279 278.249 338.264 264.705 342.789C238.723 351.48 246.598 324.499 261.325 322.492Z" fill="#AE6E60"/>
<path d="M392 255.31C398.556 289.983 453.674 271.3 437.698 239.733C441.388 234.685 445.246 255.829 444.185 260.699C439.31 283.092 412.127 291.395 395.309 275.696C390.228 270.952 383.858 247.684 392 255.31Z" fill="#F3B25D"/>
<path d="M437.698 239.733C453.676 271.294 398.556 289.984 392 255.31C390.266 246.154 391.267 244.623 396.06 237.387C392.885 244.7 393.987 244.038 396.629 250.107C387.775 243.129 397.59 261.32 398.788 262.399C399.265 262.826 408.473 266.948 410.637 267.325C428.436 270.43 445.266 247.787 430.178 236.261C428.961 233.089 427.543 230.873 423.967 230.33L425.85 229.029C428.86 230.328 436.355 237.079 437.696 239.739L437.698 239.733Z" fill="#6A2714"/>
<path d="M396.625 250.112C397.606 250.884 398.92 253.586 399.658 254.015C417.658 264.48 435.7 250.643 430.176 236.26C445.262 247.793 428.434 270.43 410.635 267.325C408.472 266.947 399.263 262.826 398.786 262.399C397.588 261.32 387.771 243.135 396.627 250.106L396.625 250.112Z" fill="#6A2714"/>
<path d="M425.849 229.029L423.966 230.33C427.541 230.873 428.96 233.088 430.176 236.261C435.7 250.643 417.658 264.481 399.658 254.016C398.921 253.587 397.606 250.884 396.625 250.112C393.985 244.038 392.883 244.7 396.056 237.393C403.086 226.782 413.836 223.852 425.841 229.033L425.849 229.029Z" fill="#8C4533"/>
<path d="M414.714 229.162C427.768 231.634 423.674 245.639 412.097 245.637C389.886 245.642 402.875 226.92 414.714 229.162Z" fill="#AE6E60"/>
<path d="M508.457 385.579C515.013 420.253 570.131 401.569 554.155 370.002C557.845 364.954 561.703 386.098 560.642 390.968C555.767 413.361 528.584 421.664 511.766 405.966C506.685 401.222 500.315 377.953 508.457 385.579Z" fill="#F3B25D"/>
<path d="M554.155 370.003C570.133 401.564 515.013 420.253 508.457 385.58C506.723 376.423 507.724 374.892 512.517 367.656C509.342 374.97 510.444 374.308 513.086 380.376C504.232 373.399 514.047 391.59 515.245 392.669C515.722 393.095 524.931 397.217 527.094 397.594C544.893 400.7 561.723 378.057 546.635 366.53C545.418 363.358 544 361.142 540.424 360.599L542.307 359.298C545.317 360.598 552.812 367.349 554.153 370.008L554.155 370.003Z" fill="#6A2714"/>
<path d="M513.082 380.381C514.063 381.153 515.377 383.856 516.115 384.285C534.115 394.75 552.157 380.912 546.633 366.53C561.719 378.062 544.891 400.699 527.092 397.594C524.929 397.217 515.72 393.095 515.243 392.668C514.045 391.589 504.228 373.404 513.084 380.376L513.082 380.381Z" fill="#6A2714"/>
<path d="M542.306 359.298L540.423 360.599C543.998 361.142 545.417 363.358 546.633 366.53C552.157 380.913 534.115 394.75 516.115 384.285C515.378 383.856 514.063 381.153 513.082 380.382C510.442 374.307 509.34 374.97 512.513 367.662C519.543 357.051 530.293 354.122 542.298 359.302L542.306 359.298Z" fill="#8C4533"/>
<path d="M531.171 359.431C544.225 361.903 540.131 375.908 528.554 375.906C506.343 375.912 519.332 357.19 531.171 359.431Z" fill="#AE6E60"/>
<path d="M419.136 694.935C446.956 744.735 521.886 687.845 481.216 647.635C484.286 638.005 501.036 668.445 501.906 676.455C505.906 713.285 468.486 739.945 434.656 724.495C424.436 719.825 402.746 687.415 419.136 694.935Z" fill="#F3B25D"/>
<path d="M426.231 604.433C466.901 644.633 391.971 701.533 364.151 651.733C356.801 638.583 357.551 635.723 361.191 622.173C360.071 635.013 361.421 633.433 368.581 641.383C351.431 635.223 375.801 658.083 378.191 659.123C379.141 659.533 395.371 661.133 398.881 660.603C427.761 656.243 441.961 612.903 412.921 602.963C409.431 598.723 406.121 596.053 400.361 597.053L402.581 594.093C407.861 594.543 422.811 601.053 426.231 604.443V604.433Z" fill="#6A2714"/>
<path d="M368.581 641.393C370.481 642.073 373.881 645.543 375.231 645.823C408.191 652.643 428.761 622.183 412.921 602.963C441.961 612.913 427.761 656.243 398.881 660.603C395.371 661.133 379.141 659.533 378.191 659.123C375.801 658.083 351.431 635.233 368.581 641.383V641.393Z" fill="#6A2714"/>
<path d="M402.583 594.093L400.363 597.053C406.123 596.053 409.433 598.723 412.923 602.963C428.763 622.183 408.193 652.643 375.233 645.823C373.883 645.543 370.483 642.073 368.583 641.393C361.423 633.433 360.073 635.013 361.193 622.183C366.533 602.313 381.513 592.313 402.573 594.103L402.583 594.093Z" fill="#8C4533"/>
<path d="M385.582 600.003C406.862 597.103 407.762 620.673 390.012 626.603C355.962 637.993 366.282 602.633 385.582 600.003Z" fill="#AE6E60"/>
<path d="M135.424 407.051C110.894 421.021 132.704 451.251 155.374 449.911C173.804 448.821 190.864 421.221 163.504 407.051C174.304 407.251 184.464 423.931 185.674 433.651C185.734 434.131 185.644 434.641 185.674 435.131C179.624 441.641 179.064 453.181 171.634 458.781C146.174 477.951 108.884 456.581 116.204 421.831C120.054 414.901 126.744 406.631 135.414 407.051H135.424Z" fill="#6A2714"/>
<path d="M185.676 435.131C188.466 475.861 138.666 493.031 117.686 461.731C108.326 447.771 108.276 436.111 116.206 421.821C108.886 456.571 146.166 477.941 171.636 458.771C179.076 453.171 179.636 441.631 185.676 435.121V435.131Z" fill="#6A2714"/>
<path d="M163.504 407.051C190.864 421.231 173.804 448.831 155.374 449.911C132.694 451.251 110.894 421.021 135.424 407.051C147.584 400.121 151.844 401.011 163.504 407.051Z" fill="#8C4533"/>
<path d="M145.032 405.571C163.982 401.371 175.752 424.861 162.772 429.221C144.832 435.241 125.882 409.811 145.032 405.571Z" fill="#AE6E60"/>
<path d="M599.42 225.28C611.65 257.3 589.93 280.88 558.04 281.45C515.42 275.62 508.08 209.03 552.13 204.59V206.07C551.54 206.11 550.58 206.92 547.7 207.55C523.04 212.9 528.53 234.06 528.49 240.07C528.44 247.36 529.82 248.05 529.97 248.94C530.01 249.17 526.06 247.52 527.01 252.64C537.72 272.62 562.03 277.76 580.96 265.2C598.38 253.65 598.85 217.14 586.13 217.9C581.73 204.75 564.09 203.39 552.14 204.6C566.76 195.11 593.53 209.85 599.44 225.29L599.42 225.28Z" fill="#6A2714"/>
<path d="M547.689 207.55C523.559 224.46 539.159 240.52 555.819 234.15C566.719 229.99 574.569 214.26 559.519 207.55C608.239 214.6 553.819 272.39 528.479 240.07C528.519 234.06 523.029 212.9 547.689 207.55Z" fill="#AE6E60"/>
<path d="M529.961 248.93C550.041 276.25 596.851 249.94 586.131 217.89C598.851 217.13 598.381 253.64 580.961 265.19C562.031 277.74 537.721 272.61 527.011 252.63C526.061 247.52 530.011 249.17 529.971 248.93H529.961Z" fill="#6A2714"/>
<path d="M586.12 217.89C596.84 249.93 550.03 276.24 529.95 248.93C529.8 248.04 528.42 247.35 528.47 240.06C553.81 272.38 608.23 214.59 559.51 207.54C557.69 207.28 552.5 206.03 552.12 206.06V204.58C564.07 203.38 581.71 204.73 586.11 217.88L586.12 217.89Z" fill="#8C4533"/>
<path d="M559.522 207.55C574.572 214.26 566.732 229.99 555.822 234.15C539.162 240.51 523.562 224.46 547.692 207.55C550.572 206.92 551.542 206.11 552.122 206.07C552.502 206.04 557.692 207.28 559.512 207.55H559.522Z" fill="#AE6E60"/>
<path d="M670.736 396.023C673.796 429.443 629.076 446.733 610.136 418.193C601.666 405.433 603.406 400.973 607.176 388.633C600.366 427.903 665.646 414.733 654.476 380.503C653.906 378.743 647.216 370.383 645.606 369.413C658.796 371.163 669.496 382.463 670.736 396.013V396.023Z" fill="#6A2714"/>
<path d="M629.348 367.943C630.178 371.133 638.698 368.503 645.608 369.423C647.208 370.383 653.898 378.753 654.478 380.513C665.648 414.743 600.378 427.913 607.178 388.643C610.958 376.283 615.008 371.053 629.348 367.953V367.943Z" fill="#8C4533"/>
<path d="M625.658 373.853C651.998 369.223 643.858 401.223 621.228 398.983C604.138 397.293 614.088 375.893 625.658 373.853Z" fill="#AE6E60"/>
<path d="M346.68 482.565C360.79 520.005 314.58 546.105 290.51 518.035C275.47 500.495 279.75 471.795 302.33 466.305C286 475.095 285.6 482.205 286.07 495.865C286.74 515.365 306.6 526.095 325.24 518.035C339.43 511.895 353.56 488.565 333.37 472.215C320.8 462.035 317.83 466.455 315.63 461.865C328.72 462.155 342.05 470.305 346.67 482.555L346.68 482.565Z" fill="#6A2714"/>
<path d="M286.082 495.865C304.292 520.855 343.432 502.555 333.382 472.215C353.572 488.565 339.442 511.895 325.252 518.035C306.622 526.095 286.752 515.365 286.082 495.865Z" fill="#6A2714"/>
<path d="M315.639 461.865C317.829 466.445 320.799 462.025 333.379 472.215C343.429 502.545 304.289 520.855 286.079 495.865C285.609 482.205 286.009 475.095 302.339 466.305C302.959 465.975 303.419 461.605 315.639 461.875V461.865Z" fill="#8C4533"/>
<path d="M307.51 467.785C334.34 464.345 324.6 498.435 298.64 491.435C284.2 487.545 295.99 469.265 307.51 467.785Z" fill="#AE6E60"/>
<path d="M401.371 120.34C422.421 144.5 381.721 167.86 368.851 143.99C368.481 143.31 369.701 140.92 367.371 141.03C372.191 126.27 386.331 119 401.361 120.34H401.371Z" fill="#AE6E60"/>
<path d="M417.633 126.25C433.763 141.21 435.223 158.27 423.543 176.5C395.943 201.89 355.963 176 367.373 141.03C369.703 140.91 368.483 143.31 368.853 143.99C365.593 150.35 369.223 157.75 374.763 161.73C362.053 164.54 391.153 184.75 410.973 173.55C430.033 162.79 420.463 145.34 426.493 143.25L416.143 132.16C414.493 127.46 411.223 126.78 408.753 123.29C412.173 124.03 414.333 125.83 417.623 126.25H417.633Z" fill="#6A2714"/>
<path d="M408.762 123.3C411.232 126.79 414.502 127.47 416.152 132.17C424.032 154.56 394.052 175.59 374.772 161.73C369.232 157.75 365.602 150.35 368.862 143.99C381.732 167.86 422.422 144.51 401.382 120.34C402.782 120.46 408.382 123.21 408.772 123.3H408.762Z" fill="#8C4533"/>
<path d="M374.764 161.73C394.054 175.59 424.024 154.56 416.144 132.17L426.494 143.26C420.464 145.35 430.034 162.8 410.974 173.56C391.154 184.75 362.054 164.55 374.764 161.74V161.73Z" fill="#6A2714"/>
<path d="M267.61 290.32C285.05 287.32 282.86 316.64 264.65 311.01C254.63 307.91 260.08 291.61 267.61 290.32Z" fill="#FCE3AF"/>
<path d="M267.609 294.75C275.499 292.82 278.219 308.02 269.089 308.05C262.439 308.08 262.409 296.02 267.609 294.75Z" fill="#FBEDD7"/>
</g>
<defs>
<linearGradient id="paint0_linear_179_346" x1="273.549" y1="67.4312" x2="493.832" y2="664.478" gradientUnits="userSpaceOnUse">
<stop stop-color="#FBD791"/>
<stop offset="1" stop-color="#F2B060"/>
</linearGradient>
<clipPath id="clip0_179_346">
<rect width="778.4" height="803.26" fill="white"/>
</clipPath>
</defs>
</svg>
