<svg width="779" height="804" viewBox="0 0 779 804" fill="none" xmlns="http://www.w3.org/2000/svg">
<g clip-path="url(#clip0_179_173)">
<path d="M581.692 752.94C457.202 820.04 321.852 820.03 197.402 752.94C86.9519 693.39 10.1019 576.7 0.821898 450.68C-2.2681 408.69 3.9419 376.33 9.6919 336.13C2.6019 418.61 15.8419 501.31 56.9919 573.35C98.4019 645.84 169.462 697.42 245.442 729.28C350.162 773.19 441.842 772.99 545.482 726.32C707.952 653.17 787.292 502.62 766.452 325.77C809.902 491.74 731.972 671.92 581.702 752.92L581.692 752.94Z" fill="#DB8337"/>
<path d="M766.441 325.79C787.281 502.63 707.951 653.19 545.471 726.34C441.831 773 350.161 773.21 245.431 729.3C169.451 697.44 98.3912 645.86 56.9812 573.37C15.8412 501.31 2.60116 418.61 9.69116 336.13C13.6512 308.45 17.9112 306.19 12.6512 264.45C20.0612 247.92 41.1312 240.8 49.6012 226.02C57.6712 211.95 57.8312 191.56 62.9012 177.25C88.3312 105.45 166.551 84.95 221.791 44.97L252.831 31.67C286.891 29.3 321.691 2.88999 340.031 0.629993C377.671 -4.00001 415.561 18.84 437.581 16.89C467.011 2.67999 506.151 11.81 535.131 24.28C583.281 45 583.631 75.38 594.251 77.49C664.941 64.61 654.111 95.87 667.411 121.09C687.691 159.53 774.831 218.13 766.441 325.8V325.79Z" fill="#F3B25D"/>
<path d="M45.1602 466.2C49.8202 462.94 57.5402 489.69 61.4202 497.98C80.4902 538.74 133.26 630.51 181.88 631.74L246.91 680.51C399.66 749.87 583.83 711.72 668.89 560.05C694.91 513.66 721.17 429.5 725.06 376.77C727.63 341.93 721.79 307.21 722.1 272.57C760.86 387.21 742.88 499.71 665.93 594.04C570.62 710.88 414.77 758.8 270.56 710.07C214 690.95 164.35 649.93 122.02 608.83C106.3 583.04 85.7902 560.45 71.7702 533.45C63.5102 517.55 58.6702 500.87 52.5602 484.68C51.9902 483.17 48.6702 484.71 48.1302 483.2C47.4402 481.29 45.5202 467.47 45.1702 466.2H45.1602Z" fill="#F3B25D"/>
<path d="M388.073 37.57C400.153 39.29 418.213 46.51 423.543 58.26C424.053 59.39 426.193 66.89 425.763 67.13C361.783 58.02 300.083 137.63 248.403 126.25C244.283 125.34 236.163 118.34 235.843 113.69C234.503 94.71 284.323 85.64 297.183 78.96C318.413 67.93 328.523 48.78 355.563 40.53C369.613 36.25 373.303 35.47 388.083 37.57H388.073Z" fill="#FCE3AF"/>
<path d="M711.75 247.45L710.27 251.15C680.08 176.66 592.71 118.71 580.2 103.35C579.5 102.5 568.07 84.81 571.33 84.87C628.16 119.55 677.41 172.12 707.31 231.93C707.67 232.65 710.44 244.43 711.74 247.45H711.75Z" fill="#F8CB81"/>
<path d="M558.042 77.48C514.872 64.19 469.232 53.39 423.542 58.27C418.212 46.51 400.152 39.3 388.072 37.58L381.422 33.15C425.342 32.74 470.172 40.78 511.492 55.32C511.992 55.5 515.432 59.29 520.362 61.23C523.972 62.65 530.232 61.03 530.712 61.23C535.402 63.21 549.132 72.57 558.052 77.49L558.042 77.48Z" fill="#F8CB81"/>
<path d="M355.552 40.53C328.512 48.78 318.402 67.92 297.172 78.96C284.312 85.64 234.502 94.71 235.832 113.69C236.162 118.34 244.272 125.35 248.392 126.25C300.072 137.63 361.772 58.02 425.752 67.13C426.182 66.89 424.052 59.39 423.532 58.26C469.222 53.39 514.862 64.19 558.032 77.47C562.462 79.91 567.012 82.23 571.332 84.86C568.072 84.8 579.502 102.48 580.202 103.34C592.702 118.7 680.082 176.66 710.272 251.14L711.752 247.44C711.832 247.63 714.142 246.84 714.712 248.18C717.712 255.27 719.522 264.95 722.102 272.57C721.792 307.21 727.622 341.93 725.062 376.77C721.172 429.5 694.912 513.66 668.892 560.05C583.832 711.71 399.662 749.87 246.912 680.51L181.882 631.74C133.262 630.51 80.4917 538.74 61.4217 497.98C57.5417 489.69 49.8317 462.94 45.1617 466.2C20.8317 375.8 47.9317 254.02 102.802 178.72C141.202 126.03 200.612 78.49 261.692 55.3C284.942 46.47 335.272 33.04 359.242 33.13C375.872 33.19 356.412 35.56 355.542 40.52L355.552 40.53Z" fill="url(#paint0_linear_179_173)"/>
<path d="M527.69 495.546C492.21 555.996 610.28 594.557 601.59 502.937C637.13 561.817 555.69 608.636 521.78 559.836C518 554.396 511.39 535.306 511.43 528.796C511.46 523.666 518.98 492.576 527.69 495.536V495.546Z" fill="#E69F53"/>
<path d="M558.042 281.45C589.932 280.89 611.662 257.3 599.422 225.28C607.582 208.79 625.982 268.13 589.812 290.31C547.752 316.1 504.212 271.96 515.172 239.32C518.012 230.87 518.722 252.83 524.042 261.49C532.152 274.69 543.542 281.7 558.032 281.44L558.042 281.45Z" fill="#F3B25D"/>
<path d="M175.061 430.477C202.881 480.277 277.811 423.387 237.141 383.177C240.211 373.547 256.961 403.987 257.831 411.997C261.831 448.827 224.411 475.487 190.581 460.037C180.361 455.367 158.671 422.957 175.061 430.477Z" fill="#F3B25D"/>
<path d="M290.521 609.57C314.591 637.64 360.791 611.54 346.691 574.1C357.991 578.81 355.951 602.54 348.171 614.75C330.421 642.6 279.671 637.02 277.961 597.75C285.871 597.64 280.421 609.52 290.521 609.57Z" fill="#E69F53"/>
<path d="M90.2409 381.95C125.191 373.22 116.731 427.11 87.2809 411.51C71.5509 403.17 79.3809 384.66 90.2409 381.95Z" fill="#FCE3AF"/>
<path d="M195.181 553.4C223.441 546.05 226.941 605.36 196.661 587.39C183.681 579.69 185.351 555.95 195.181 553.4Z" fill="#FCE3AF"/>
<path d="M341.509 240.06C368.539 236.61 368.099 271.27 351.859 274.05C332.159 277.43 319.999 242.8 341.509 240.06Z" fill="#FCE3AF"/>
<path d="M542.521 117.39C560.061 115.37 560.841 148.12 546.951 154.34C525.571 163.91 522.631 119.68 542.521 117.39Z" fill="#FCE3AF"/>
<path d="M659.281 245.97C686.101 242.26 676.481 282.51 653.371 275.53C640.991 271.79 645.071 247.94 659.281 245.97Z" fill="#F9DEBC"/>
<path d="M470.147 374.814C481.817 356.584 480.367 339.514 464.237 324.564C459.977 319.374 476.947 331.894 477.537 332.694C508.237 374.094 444.227 418.134 415.457 377.034L417.677 374.814C430.877 391.184 458.217 393.434 470.147 374.814Z" fill="#F3B25D"/>
<path d="M384.371 548.97C404.371 541.75 415.671 577.01 397.671 580.01C380.321 582.9 372.941 553.09 384.371 548.97Z" fill="#FCE3AF"/>
<path d="M481.92 89.3C508.09 83.1 502.3 125.84 478.96 115.9C467.77 111.14 471.66 91.72 481.92 89.3Z" fill="#FCE3AF"/>
<path d="M422.8 633.22C448.87 627.04 443.47 665.07 421.32 659.82C409.26 656.96 411.38 635.92 422.8 633.22Z" fill="#F9DEBC"/>
<path d="M150.84 330.22C176.49 324.36 174.39 361.16 149.36 355.35C135.07 352.03 140.96 332.48 150.84 330.22Z" fill="#FCE3AF"/>
<path d="M569.122 467.68C591.202 465.22 584.132 496.16 564.692 491.33C552.472 488.29 558.262 468.89 569.122 467.68Z" fill="#FCE3AF"/>
<path d="M88.7616 300.66C100.972 296.7 103.402 316.82 93.1916 316.92C87.2216 316.98 80.7516 303.26 88.7616 300.66Z" fill="#F9DEBC"/>
<path d="M267.7 223.956C287.47 254.586 337.83 241.956 341.6 206.216C342.38 198.856 341.14 192.396 338.64 185.526C347.95 189.486 351.41 211.166 350.46 220.256C347.73 246.516 321.33 262.666 296.51 260.906C281.15 259.816 281.14 253.946 280.25 253.516C265.81 246.526 253.74 238.476 249.95 220.256C244.71 195.066 262.28 172.526 263.25 181.826C252.54 189.216 258.56 225.586 267.68 223.946L267.7 223.956Z" fill="#F3B25D"/>
<path d="M338.641 185.526C341.141 192.396 342.371 198.866 341.601 206.216C337.711 202.426 331.801 220.096 323.121 225.426C305.211 236.436 283.491 231.116 270.651 215.816C264.041 207.946 263.631 197.026 264.741 186.256L270.651 192.906C286.701 236.526 352.411 212.216 331.251 175.166C334.871 176.776 337.371 182.026 338.641 185.516V185.526Z" fill="#6A2714"/>
<path d="M270.65 192.916L264.74 186.266C263.63 197.036 264.04 207.956 270.65 215.826C283.49 231.126 305.21 236.446 323.12 225.436C331.8 220.096 337.71 202.436 341.6 206.226C337.83 241.956 287.47 254.596 267.7 223.966C258.4 209.556 258.87 195.626 266.22 181.106C271 180.026 267.94 185.976 270.65 192.926V192.916Z" fill="#6A2714"/>
<path d="M331.249 175.186C352.409 212.236 286.699 236.536 270.649 192.926C267.939 185.976 270.989 180.026 266.219 181.106C279.399 155.076 317.839 151.716 331.249 175.196V175.186Z" fill="#8C4533"/>
<path d="M290.609 166.316C307.399 162.436 317.249 174.646 320.169 167.796C343.719 206.216 274.079 200.956 279.519 175.926C280.109 173.206 288.409 166.826 290.609 166.316Z" fill="#AE6E60"/>
<path d="M601.592 502.937C610.282 594.557 492.212 555.997 527.692 495.547C535.392 482.427 546.112 481.637 548.382 480.767C534.342 488.957 521.772 498.607 530.642 516.237C516.822 505.747 529.062 536.547 540.252 542.837C570.082 559.607 615.512 525.147 589.022 491.107L588.282 494.067C586.422 488.337 576.132 481.347 570.542 479.287C586.872 481.057 593.672 489.827 601.582 502.937H601.592Z" fill="#6A2714"/>
<path d="M530.642 516.237C544.692 544.147 599.222 527.667 588.282 494.067L589.022 491.107C615.512 525.147 570.072 559.607 540.252 542.837C529.062 536.547 516.822 505.747 530.642 516.237Z" fill="#6A2714"/>
<path d="M552.812 479.287C558.622 479.737 564.782 478.667 570.552 479.287C576.132 481.347 586.422 488.337 588.292 494.067C599.222 527.667 544.702 544.147 530.652 516.237C521.782 498.607 534.352 488.957 548.392 480.767C550.202 480.077 550.772 479.797 552.822 479.287H552.812Z" fill="#8C4533"/>
<path d="M552.07 483.717C583.65 478.027 580.77 515.367 549.11 508.847C532.27 505.377 536.75 486.477 552.07 483.717Z" fill="#AE6E60"/>
<path d="M237.138 383.177C277.808 423.377 202.878 480.277 175.058 430.477C167.708 417.327 168.458 414.467 172.098 400.917C170.978 413.757 172.328 412.177 179.488 420.127C162.338 413.967 186.708 436.827 189.098 437.867C190.048 438.277 206.278 439.877 209.788 439.347C238.668 434.987 252.868 391.647 223.828 381.707C220.338 377.467 217.028 374.797 211.268 375.797L213.488 372.837C218.768 373.287 233.718 379.797 237.138 383.187V383.177Z" fill="#6A2714"/>
<path d="M179.488 420.137C181.388 420.817 184.788 424.287 186.138 424.567C219.098 431.387 239.668 400.927 223.828 381.707C252.868 391.657 238.668 434.987 209.788 439.347C206.278 439.877 190.048 438.277 189.098 437.867C186.708 436.827 162.338 413.977 179.488 420.127V420.137Z" fill="#6A2714"/>
<path d="M213.489 372.837L211.269 375.797C217.029 374.797 220.339 377.467 223.829 381.707C239.669 400.927 219.099 431.387 186.139 424.567C184.789 424.287 181.389 420.817 179.489 420.137C172.329 412.177 170.979 413.757 172.099 400.927C177.439 381.057 192.419 371.057 213.479 372.847L213.489 372.837Z" fill="#8C4533"/>
<path d="M196.488 378.747C217.768 375.847 218.668 399.417 200.918 405.347C166.868 416.737 177.188 381.377 196.488 378.747Z" fill="#AE6E60"/>
<path d="M599.42 225.28C611.65 257.3 589.93 280.88 558.04 281.45C515.42 275.62 508.08 209.03 552.13 204.59V206.07C551.54 206.11 550.58 206.92 547.7 207.55C523.04 212.9 528.53 234.06 528.49 240.07C528.44 247.36 529.82 248.05 529.97 248.94C530.01 249.17 526.06 247.52 527.01 252.64C537.72 272.62 562.03 277.76 580.96 265.2C598.38 253.65 598.85 217.14 586.13 217.9C581.73 204.75 564.09 203.39 552.14 204.6C566.76 195.11 593.53 209.85 599.44 225.29L599.42 225.28Z" fill="#6A2714"/>
<path d="M547.689 207.55C523.559 224.46 539.159 240.52 555.819 234.15C566.719 229.99 574.569 214.26 559.519 207.55C608.239 214.6 553.819 272.39 528.479 240.07C528.519 234.06 523.029 212.9 547.689 207.55Z" fill="#AE6E60"/>
<path d="M529.961 248.93C550.041 276.25 596.851 249.94 586.131 217.89C598.851 217.13 598.381 253.64 580.961 265.19C562.031 277.74 537.721 272.61 527.011 252.63C526.061 247.52 530.011 249.17 529.971 248.93H529.961Z" fill="#6A2714"/>
<path d="M586.12 217.89C596.84 249.93 550.03 276.24 529.95 248.93C529.8 248.04 528.42 247.35 528.47 240.06C553.81 272.38 608.23 214.59 559.51 207.54C557.69 207.28 552.5 206.03 552.12 206.06V204.58C564.07 203.38 581.71 204.73 586.11 217.88L586.12 217.89Z" fill="#8C4533"/>
<path d="M559.522 207.55C574.572 214.26 566.732 229.99 555.822 234.15C539.162 240.51 523.562 224.46 547.692 207.55C550.572 206.92 551.542 206.11 552.122 206.07C552.502 206.04 557.692 207.28 559.512 207.55H559.522Z" fill="#AE6E60"/>
<path d="M346.68 574.1C360.79 611.54 314.58 637.64 290.51 609.57C275.47 592.03 279.75 563.33 302.33 557.84C286 566.63 285.6 573.74 286.07 587.4C286.74 606.9 306.6 617.63 325.24 609.57C339.43 603.43 353.56 580.1 333.37 563.75C320.8 553.57 317.83 557.99 315.63 553.4C328.72 553.69 342.05 561.84 346.67 574.09L346.68 574.1Z" fill="#6A2714"/>
<path d="M286.082 587.4C304.292 612.39 343.432 594.09 333.382 563.75C353.572 580.1 339.442 603.43 325.252 609.57C306.622 617.63 286.752 606.9 286.082 587.4Z" fill="#6A2714"/>
<path d="M315.639 553.4C317.829 557.98 320.799 553.56 333.379 563.75C343.429 594.08 304.289 612.39 286.079 587.4C285.609 573.74 286.009 566.63 302.339 557.84C302.959 557.51 303.419 553.14 315.639 553.41V553.4Z" fill="#8C4533"/>
<path d="M307.51 559.32C334.34 555.88 324.6 589.97 298.64 582.97C284.2 579.08 295.99 560.8 307.51 559.32Z" fill="#AE6E60"/>
<path d="M447.977 318.644C469.027 342.804 428.327 366.164 415.457 342.294C415.087 341.614 416.307 339.224 413.977 339.334C418.797 324.574 432.937 317.304 447.967 318.644H447.977Z" fill="#AE6E60"/>
<path d="M464.238 324.554C480.368 339.514 481.828 356.574 470.148 374.804C442.548 400.194 402.568 374.304 413.978 339.334C416.308 339.214 415.088 341.614 415.458 342.294C412.198 348.654 415.828 356.054 421.368 360.034C408.658 362.844 437.758 383.054 457.578 371.854C476.638 361.094 467.068 343.644 473.098 341.554L462.748 330.464C461.098 325.764 457.828 325.084 455.358 321.594C458.778 322.334 460.938 324.134 464.228 324.554H464.238Z" fill="#6A2714"/>
<path d="M455.367 321.604C457.837 325.094 461.107 325.774 462.757 330.474C470.637 352.864 440.657 373.894 421.377 360.034C415.837 356.054 412.207 348.654 415.467 342.294C428.337 366.164 469.027 342.814 447.987 318.644C449.387 318.764 454.987 321.514 455.377 321.604H455.367Z" fill="#8C4533"/>
<path d="M421.37 360.034C440.66 373.894 470.63 352.864 462.75 330.474L473.1 341.564C467.07 343.654 476.64 361.104 457.58 371.864C437.76 383.054 408.66 362.854 421.37 360.044V360.034Z" fill="#6A2714"/>
<path d="M267.61 290.32C285.05 287.32 282.86 316.64 264.65 311.01C254.63 307.91 260.08 291.61 267.61 290.32Z" fill="#FCE3AF"/>
<path d="M267.609 294.75C275.499 292.82 278.219 308.02 269.089 308.05C262.439 308.08 262.409 296.02 267.609 294.75Z" fill="#FBEDD7"/>
</g>
<defs>
<linearGradient id="paint0_linear_179_173" x1="273.549" y1="67.4312" x2="493.832" y2="664.478" gradientUnits="userSpaceOnUse">
<stop stop-color="#FBD791"/>
<stop offset="1" stop-color="#F2B060"/>
</linearGradient>
<clipPath id="clip0_179_173">
<rect width="778.4" height="803.26" fill="white"/>
</clipPath>
</defs>
</svg>
